<svg width="80" height="80" viewBox="0 0 80 80" fill="none" xmlns="http://www.w3.org/2000/svg">
<g id="Group">
<g id="Group_2">
<path id="Vector" d="M80 39.9959C80 44.1792 79.3683 48.2067 78.1706 51.9963C76.9401 55.9253 75.1107 59.5919 72.7892 62.8976C72.1657 63.7916 71.5094 64.6529 70.8121 65.4896C70.3035 66.113 69.7703 66.72 69.2207 67.3106C69.1386 67.409 69.0566 67.5074 68.9582 67.5977L68.8597 67.7043C68.7695 67.7945 68.6792 67.893 68.589 67.975C67.4569 69.1315 66.251 70.2307 64.9877 71.2396C64.9713 71.256 64.9549 71.2642 64.9385 71.2806C64.6185 71.5267 64.2986 71.781 63.9705 72.0189C63.6505 72.2649 63.3142 72.511 62.9779 72.7407C62.6333 72.9786 62.297 73.2082 61.9606 73.4379C61.6161 73.6594 61.2633 73.8809 60.9106 74.0941C60.7711 74.1843 60.6235 74.2664 60.4922 74.3566C60.3117 74.4632 60.123 74.5781 59.9344 74.6765C59.8523 74.7257 59.7867 74.7667 59.7129 74.8077C59.4668 74.9472 59.2289 75.0702 58.991 75.2015C58.6628 75.3819 58.3265 75.5624 57.9902 75.7264C57.7523 75.8495 57.5144 75.9643 57.26 76.0874C57.1206 76.153 56.9729 76.235 56.8171 76.2924C56.5874 76.4073 56.3577 76.5139 56.1116 76.6123C55.7998 76.7518 55.4963 76.883 55.1764 77.0142C55.1518 77.0306 55.1271 77.0389 55.1025 77.0471C54.8646 77.1373 54.6267 77.2439 54.3888 77.3259C54.1181 77.4326 53.8474 77.5392 53.5767 77.6294C53.4701 77.6705 53.3716 77.7115 53.265 77.7443C52.9204 77.8591 52.5759 77.9822 52.2231 78.097C51.9278 78.1954 51.6161 78.2939 51.3043 78.3677C51.0582 78.4579 50.8121 78.5235 50.5578 78.5891C50.4922 78.6056 50.4266 78.622 50.3609 78.6466C49.9836 78.745 49.6062 78.8434 49.2289 78.9255C49.0648 78.9665 48.9007 78.9993 48.7367 79.0403C47.6784 79.2782 46.6038 79.475 45.5127 79.6227C45.0697 79.6801 44.6185 79.7375 44.1591 79.7867C43.7162 79.8359 43.2486 79.8688 42.8056 79.9016C41.8622 79.9672 40.9352 80 40 80C38.4742 80 36.9565 79.9098 35.4717 79.7457C35.2666 79.7293 35.0615 79.7047 34.8646 79.6801C34.8482 79.6719 34.84 79.6719 34.8236 79.6719C32.9286 79.4258 31.0746 79.0485 29.2699 78.5399C27.2354 77.9822 25.2584 77.2521 23.3716 76.3826C23.2978 76.3498 23.224 76.317 23.1501 76.2842C22.8466 76.1448 22.5431 75.9971 22.2477 75.8577C21.4848 75.4804 20.7301 75.0784 20 74.6437C19.6801 74.4632 19.3601 74.2746 19.0484 74.0777C18.2609 73.602 17.4979 73.0934 16.7514 72.552C15.9721 71.9943 15.2092 71.4119 14.4791 70.7967C13.5767 70.0502 12.7071 69.271 11.8786 68.4425C11.2551 67.8273 10.6563 67.1875 10.082 66.5313C9.13863 65.4814 8.26907 64.3822 7.45693 63.2421C7.12879 62.7827 6.80066 62.3152 6.48893 61.8312C5.7178 60.6665 5.0123 59.4607 4.38064 58.2139C3.68334 56.8522 3.05988 55.4496 2.51845 54.0141C0.885966 49.6504 0 44.9339 0 39.9959C0 17.9063 17.9081 0 40 0C62.0919 0 80 17.9063 80 39.9959Z" fill="#E8E1EF"/>
</g>
<g id="Group_3">
<path id="Vector_2" d="M33.7974 14.2973C33.7974 14.2973 43.6842 6.63359 52.1239 11.8521C60.5636 17.0706 57.3084 27.9989 57.3084 27.9989C57.3084 27.9989 67.7875 30.8624 69.2994 44.1744C70.8105 57.4856 58.1534 60.0071 58.1534 60.0071L39.9623 49.2322L33.7974 14.2973Z" fill="black"/>
</g>
<g id="Group_4">
<path id="Vector_3" d="M49.5159 69.353L48.7366 79.0403C47.6784 79.2782 46.6037 79.475 45.5126 79.6227C45.0697 79.6801 44.6185 79.7375 44.1591 79.7867C43.7079 79.836 43.2403 79.8688 42.7891 79.9016C41.8621 79.9672 40.9351 80 39.9999 80C38.4741 80 36.9565 79.9098 35.4716 79.7457C35.2666 79.7293 35.0615 79.7047 34.8646 79.6801C34.8482 79.6719 34.84 79.6719 34.8236 79.6719C32.9286 79.4258 31.0746 79.0485 29.2698 78.5399C27.2354 77.9822 25.2584 77.2521 23.3716 76.3827C23.2977 76.3499 23.2239 76.317 23.1501 76.2842C22.8465 76.1448 22.543 75.9971 22.2477 75.8577C21.4848 75.4804 20.73 75.0784 19.9999 74.6437C19.68 74.4633 19.3601 74.2746 19.0483 74.0777C19.6308 70.2143 23.8556 43.2687 29.7456 42.6536C36.0869 41.9809 41.6898 42.8258 41.6898 42.8258L49.5159 69.353Z" fill="#6876AA"/>
</g>
<g id="Group_5">
<path id="Vector_4" d="M64.9876 71.2394C64.9712 71.2558 64.9548 71.264 64.9384 71.2805C64.6185 71.5265 64.2985 71.7808 63.9704 72.0187C63.6504 72.2648 63.3141 72.5108 62.9778 72.7405C62.6332 72.9784 62.2969 73.2081 61.9605 73.4377C61.616 73.6592 61.2632 73.8807 60.9105 74.0939C60.771 74.1842 60.6234 74.2662 60.4921 74.3564C60.3117 74.4631 60.123 74.5779 59.9343 74.6763C59.8523 74.7255 59.7866 74.7666 59.7128 74.8076C59.4667 74.947 59.2288 75.0701 58.9909 75.2013C58.6628 75.3818 58.3264 75.5622 57.9901 75.7263C57.7522 75.8493 57.5143 75.9641 57.26 76.0872C57.1205 76.1528 56.9728 76.2348 56.817 76.2922C56.5873 76.4071 56.3576 76.5137 56.1115 76.6121C55.7997 76.7516 55.4962 76.8828 55.1763 77.0141C55.1517 77.0305 55.1271 77.0387 55.1025 77.0469C54.8646 77.1371 54.6267 77.2437 54.3888 77.3258C54.118 77.4324 53.8473 77.539 53.5766 77.6293C53.47 77.6703 53.3715 77.7113 53.2649 77.7441C52.9203 77.8589 52.5758 77.982 52.2231 78.0968C51.9277 78.1952 51.616 78.2937 51.3043 78.3675C51.0582 78.4577 50.8121 78.5234 50.5578 78.589C50.4921 78.6054 50.4265 78.6218 50.3609 78.6464C49.9835 78.7448 49.6061 78.8433 49.2288 78.9253C49.0647 78.9663 48.9007 78.9991 48.7366 79.0401C47.6783 79.278 46.6037 79.4749 45.5126 79.6225C45.0696 79.6799 44.6185 79.7373 44.1591 79.7866C43.7161 79.8358 43.2485 79.8686 42.8055 79.9014C42.7399 78.4085 42.6906 77.1289 42.6578 76.1036C42.1246 58.5992 40.6562 43.3342 40.6562 43.3342L29.7456 42.6534C31.3207 42.112 32.3871 41.8003 32.3871 41.8003L39.1221 41.8905C39.1221 41.8905 53.5274 43.7033 59.3354 49.0924C61.1894 50.815 63.2321 59.6164 64.9876 71.2394Z" fill="#F6F5F7"/>
</g>
<g id="Group_6">
<path id="Vector_5" d="M29.7295 42.6616C29.5408 42.9159 26.4317 47.1977 24.4875 67.294C24.2578 69.6564 23.8722 72.7652 23.3718 76.3825C23.298 76.3497 23.2241 76.3169 23.1503 76.2841C22.8468 76.1446 22.5432 75.997 22.2479 75.8576C21.485 75.4802 20.7303 75.0783 20.0002 74.6436C18.8763 74.0038 17.8016 73.3066 16.7516 72.5519C15.9723 71.9941 15.2094 71.4118 14.4792 70.7966C15.1601 59.9363 15.841 51.7337 16.4235 50.3885C17.8509 47.1156 25.5703 44.0807 29.7295 42.6616Z" fill="#F6F5F7"/>
</g>
<g id="Group_7">
<path id="Vector_6" d="M25.7975 29.7703C25.7975 29.7703 22.8795 26.4548 23.8041 21.3922C24.4308 17.9602 25.9771 16.8685 25.9771 16.8685C25.9771 16.8685 23.7105 12.1405 30.649 12.5219C37.5867 12.9033 41.6236 16.3689 41.6236 16.3689C41.6236 16.3689 44.8188 14.8547 46.1896 18.5746C47.5612 22.2945 46.0616 27.732 46.0616 27.732L25.7975 29.7703Z" fill="black"/>
</g>
<g id="Group_8">
<g id="Group_9">
<g id="Group_10">
<g id="Group_11">
<path id="Vector_7" d="M40.9565 35.7036L40.625 44.1736C40.625 44.1736 39.0024 46.5491 34.0311 46.7583C30.3281 46.9141 29.2329 44.9726 29.2329 44.9726L30.4167 37.596L39.4421 35.9776L40.9565 35.7036Z" fill="#F48462"/>
</g>
</g>
</g>
</g>
<g id="Group_12">
<g id="Group_13">
<g id="Group_14">
<g id="Group_15">
<path id="Vector_8" d="M40.964 35.186C40.9336 35.4165 40.8352 35.6864 40.6859 35.994C38.6252 40.1511 31.886 41.6513 29.7466 41.7588L30.4176 37.5951L40.964 35.186Z" fill="black"/>
</g>
</g>
</g>
</g>
<g id="Group_16">
<g id="Group_17">
<g id="Group_18">
<g id="Group_19">
<path id="Vector_9" d="M29.2822 18.2149C29.2822 18.2149 24.4217 28.6609 25.9435 34.6299C27.4652 40.599 32.8901 39.7926 36.1502 38.723C39.4102 37.6526 40.9574 35.7061 40.9574 35.7061C40.9574 35.7061 43.9533 36.8012 46.0394 34.041C48.1256 31.2808 46.9574 28.0268 45.2511 27.2476C43.5439 26.4683 41.4644 27.6643 41.4644 27.6643L43.1436 24.6351C43.1436 24.6351 36.7498 8.88688 29.2822 18.2149Z" fill="#F48462"/>
</g>
</g>
</g>
</g>
<g id="Group_20">
<g id="Group_21">
<g id="Group_22">
<g id="Group_23">
<path id="Vector_10" d="M41.4643 27.6634C41.4643 27.6634 36.9114 28.5157 33.8285 23.4202C30.7457 18.3248 31.064 16.2536 31.064 16.2536L27.849 21.4245C27.849 21.4245 27.1969 17.799 28.6759 15.5137C30.1542 13.2285 31.6497 13.7272 31.6497 13.7272L41.6251 16.3676L44.1493 24.4275L41.4643 27.6634Z" fill="black"/>
</g>
</g>
</g>
</g>
<g id="Group_24">
<path id="Vector_11" d="M29.4594 31.6231C29.3199 31.6231 29.1911 31.5313 29.1509 31.391C28.4921 29.1285 30.1182 26.8651 30.1879 26.77C30.293 26.6272 30.494 26.5961 30.6375 26.7002C30.7811 26.8044 30.8123 27.0054 30.7081 27.1498C30.6933 27.1703 29.2001 29.2564 29.7687 31.2121C29.8187 31.3828 29.7203 31.5608 29.5496 31.6108C29.5193 31.619 29.4889 31.6231 29.4594 31.6231Z" fill="black"/>
</g>
<g id="Group_25">
<path id="Vector_12" d="M41.8353 32.6082C41.754 32.6082 41.6728 32.5778 41.6105 32.5171C41.4833 32.3932 41.4808 32.189 41.6047 32.0618L44.5246 29.0708C44.6493 28.9445 44.8528 28.9412 44.98 29.0651C45.1071 29.189 45.1096 29.3932 44.9857 29.5204L42.0658 32.5106C42.0026 32.5754 41.9189 32.6082 41.8353 32.6082Z" fill="black"/>
</g>
<g id="Group_26">
<path id="Vector_13" d="M44.8854 31.844C44.8681 31.844 44.8501 31.8432 44.8312 31.8399L42.8524 31.506C42.6776 31.4765 42.5595 31.3108 42.589 31.1353C42.6185 30.9605 42.7818 30.8416 42.9598 30.8719L44.9387 31.2058C45.1135 31.2353 45.2316 31.401 45.2021 31.5766C45.1758 31.7333 45.0396 31.844 44.8854 31.844Z" fill="black"/>
</g>
<g id="Group_27">
<path id="Vector_14" d="M27.5472 22.9487C27.3921 22.9487 27.2551 22.8363 27.2296 22.6772C27.2017 22.5016 27.3207 22.3367 27.4971 22.3089L29.3767 22.0094C29.549 21.9815 29.7172 22.1005 29.7451 22.2769C29.773 22.4524 29.654 22.6173 29.4776 22.6452L27.5972 22.9446C27.5808 22.9479 27.5636 22.9487 27.5472 22.9487Z" fill="black"/>
</g>
<g id="Group_28">
<path id="Vector_15" d="M35.3234 24.2881C35.2734 24.2881 35.2217 24.2766 35.1741 24.252L32.1205 22.6523C31.963 22.5694 31.9022 22.375 31.9843 22.2175C32.0672 22.06 32.2608 21.9985 32.4191 22.0813L35.4728 23.681C35.6303 23.7639 35.691 23.9583 35.6081 24.1158C35.5515 24.2257 35.4399 24.2881 35.3234 24.2881Z" fill="black"/>
</g>
<g id="Group_29">
<path id="Vector_16" d="M27.4873 27.2823C27.4545 27.2823 27.4217 27.2774 27.3881 27.2667C27.2191 27.2117 27.1263 27.0304 27.1805 26.8614L27.74 25.1281L27.2724 24.5391C27.1616 24.3996 27.1854 24.197 27.3241 24.087C27.4635 23.9771 27.6662 24.0001 27.7761 24.1387L28.3512 24.8631C28.4177 24.9476 28.4382 25.06 28.4054 25.1625L27.7934 27.06C27.7491 27.1953 27.6227 27.2823 27.4873 27.2823Z" fill="black"/>
</g>
<g id="Group_30">
<path id="Vector_17" d="M32.8132 27.8696C32.7804 27.8696 32.7468 27.8647 32.714 27.854C32.545 27.7991 32.4523 27.6178 32.5064 27.4488L33.0643 25.7195L32.3825 24.9008C32.2685 24.7638 32.2874 24.5612 32.4236 24.448C32.5589 24.3339 32.7624 24.352 32.8764 24.489L33.6714 25.4439C33.742 25.5284 33.7641 25.644 33.7305 25.749L33.1185 27.6465C33.0758 27.7827 32.9494 27.8696 32.8132 27.8696Z" fill="black"/>
</g>
<g id="Group_31">
<path id="Vector_18" d="M72.7891 62.8977C72.1656 63.7918 71.5093 64.6531 70.812 65.4897C70.3034 66.1131 69.7702 66.7201 69.2206 67.3107C69.1385 67.4092 69.0565 67.5076 68.9581 67.5978L68.8596 67.7045C68.7694 67.7947 68.6791 67.8931 68.5889 67.9751C67.4404 69.1481 66.2181 70.2555 64.9384 71.2808C64.6184 71.5269 64.2985 71.7811 63.9704 72.019C63.6504 72.2651 63.3141 72.5112 62.9778 72.7408C62.6332 72.9787 62.2969 73.2084 61.9605 73.4381C61.616 73.6595 61.2632 73.881 60.9105 74.0943C60.771 74.1845 60.6234 74.2665 60.4921 74.3568C60.3116 74.4634 60.1229 74.5782 59.9343 74.6767C59.8522 74.7259 59.7866 74.7669 59.7128 74.8079C59.4667 74.9474 59.2288 75.0704 58.9909 75.2016C58.6627 75.3821 58.3264 75.5625 57.9901 75.7266C57.7522 75.8496 57.5143 75.9645 57.26 76.0875C57.1205 76.1531 56.9728 76.2352 56.817 76.2926C56.5873 76.4074 56.3576 76.514 56.1115 76.6125C55.7997 76.7519 55.4962 76.8832 55.1763 77.0144L56.538 47.0913C56.538 47.0913 65.6849 52.8987 72.7891 62.8977Z" fill="#F6F5F7"/>
</g>
<g id="Group_32">
<path id="Vector_19" d="M33.2823 47.1148C30.1306 47.1148 29.0042 45.2191 28.9542 45.1322C28.8656 44.978 28.9189 44.7811 29.0732 44.6925C29.2274 44.6031 29.4234 44.6573 29.5129 44.8115C29.558 44.8894 30.6892 46.744 34.0026 46.4364C37.147 46.1468 40.412 43.9297 40.4448 43.9075C40.5916 43.8058 40.7918 43.8444 40.8919 43.9912C40.9919 44.1372 40.955 44.3373 40.809 44.4382C40.6704 44.5334 37.3759 46.7727 34.0617 47.0778C33.7885 47.1024 33.5293 47.1148 33.2823 47.1148Z" fill="white"/>
</g>
<g id="Group_33">
<path id="Vector_20" d="M44.3946 53.258C44.3634 53.258 44.3314 53.2548 44.2995 53.2474C44.0788 53.1949 43.9426 52.9742 43.9943 52.7536C44.8712 49.0452 44.6924 46.1792 43.4602 44.2335C42.3881 42.5397 40.8926 42.2034 40.8778 42.2001C40.6555 42.1534 40.5152 41.9352 40.562 41.7137C40.6095 41.4914 40.831 41.352 41.0484 41.3979C41.1239 41.4143 42.8991 41.8121 44.1543 43.7947C45.5078 45.9331 45.7236 49.0107 44.7933 52.9422C44.749 53.1317 44.5808 53.258 44.3946 53.258Z" fill="#40507F"/>
</g>
<g id="Group_34">
<path id="Vector_21" d="M54.7186 66.7567L45.762 67.5147C44.9302 67.5852 44.1985 66.9675 44.1279 66.1358L43.9606 64.1532C43.89 63.3215 44.5077 62.5898 45.3396 62.5193L54.2961 61.7613C55.1279 61.6908 55.8597 62.3085 55.9302 63.1402L56.0976 65.1228C56.1681 65.9545 55.5512 66.6862 54.7186 66.7567Z" fill="#F7B369"/>
</g>
<g id="Group_35">
<path id="Vector_22" d="M23.6224 63.0502C23.3977 63.0502 23.2147 62.8689 23.2123 62.6442C23.2057 61.9798 23.1187 46.335 28.9916 42.0622C29.1737 41.9293 29.4321 41.9695 29.5642 42.1524C29.6979 42.3354 29.6569 42.5921 29.4739 42.725C23.9415 46.7492 24.031 62.4769 24.0326 62.6352C24.0342 62.8616 23.8529 63.0469 23.6265 63.0494C23.6265 63.0494 23.6241 63.0502 23.6224 63.0502Z" fill="#40507F"/>
</g>
<g id="Group_36">
<path id="Vector_23" d="M43.572 67.3245C43.517 67.3245 43.4612 67.313 43.4071 67.2901C43.1995 67.199 43.1052 66.957 43.1963 66.7495C43.2381 66.6535 47.3751 57.0868 44.3128 53.7738C43.928 53.3579 43.4744 53.1783 42.9182 53.2267C40.1298 53.4711 35.7976 59.3147 34.3636 61.5458C34.2414 61.7361 33.9879 61.7919 33.7968 61.6688C33.6064 61.5466 33.5515 61.2923 33.6737 61.102C33.8927 60.7608 39.0888 52.7395 42.8468 52.4097C43.6581 52.3416 44.3546 52.6107 44.9149 53.2169C48.3398 56.9228 44.1282 66.6658 43.9469 67.0784C43.8804 67.2326 43.7295 67.3245 43.572 67.3245Z" fill="#40507F"/>
</g>
<g id="Group_37">
<path id="Vector_24" d="M35.9267 62.1641H32.6302C32.4037 62.1641 32.22 61.9803 32.22 61.7539C32.22 61.5275 32.4037 61.3438 32.6302 61.3438H35.9267C36.1531 61.3438 36.3369 61.5275 36.3369 61.7539C36.3369 61.9803 36.1539 62.1641 35.9267 62.1641Z" fill="#40507F"/>
</g>
<g id="Group_38">
<path id="Vector_25" d="M44.0577 68.7293C43.9199 68.7293 43.7854 68.6604 43.7074 68.5341L41.9829 65.7244C41.8647 65.5316 41.9246 65.279 42.1183 65.16C42.3102 65.0411 42.5638 65.1018 42.6827 65.2954L44.4073 68.105C44.5262 68.2978 44.4655 68.5505 44.2719 68.6694C44.2054 68.7096 44.1316 68.7293 44.0577 68.7293Z" fill="#40507F"/>
</g>
<g id="Group_39">
<path id="Vector_26" d="M22.5267 45.877L20.0001 74.6435C18.8762 74.0037 17.8015 73.3065 16.7515 72.5518C15.0206 71.3132 13.3881 69.9434 11.8787 68.4423C11.2552 67.8271 10.6563 67.1873 10.0821 66.5311C9.1387 65.4812 8.26914 64.382 7.45699 63.2419C7.12886 62.7825 6.80072 62.315 6.48899 61.831C5.71787 60.6663 5.01237 59.4605 4.3807 58.2137C3.68341 56.852 22.5267 45.877 22.5267 45.877Z" fill="#F6F5F7"/>
</g>
<g id="Group_40">
<path id="Vector_27" d="M26.1719 63.4722C26.1719 64.8799 25.0307 66.021 23.6228 66.021C22.215 66.021 21.0737 64.8799 21.0737 63.4722C21.0737 62.0644 22.215 60.9233 23.6228 60.9233C25.0307 60.9233 26.1719 62.0644 26.1719 63.4722Z" fill="#40507F"/>
</g>
<g id="Group_41">
<path id="Vector_28" d="M24.6154 63.4718C24.6154 64.0198 24.1715 64.4636 23.6235 64.4636C23.0754 64.4636 22.6316 64.0198 22.6316 63.4718C22.6316 62.9238 23.0754 62.48 23.6235 62.48C24.1707 62.4792 24.6154 62.9238 24.6154 63.4718Z" fill="#A37B90"/>
</g>
<g id="Group_42">
<path id="Vector_29" d="M32.5049 34.9551C31.6098 34.9551 30.9198 34.1782 30.8886 34.1413C30.8296 34.0732 30.8017 33.9838 30.8115 33.8935C30.8214 33.8041 30.8689 33.7221 30.942 33.6696C32.8462 32.2857 34.035 31.7541 34.4723 32.0888C34.6913 32.2561 34.7274 32.5367 34.5797 32.9247C34.1244 34.1232 33.5165 34.7984 32.7731 34.9313C32.6821 34.9477 32.5918 34.9551 32.5049 34.9551ZM31.641 33.9616C31.8854 34.1503 32.2678 34.3693 32.6616 34.2972C33.1587 34.2069 33.6141 33.6532 33.9775 32.6958C33.9866 32.6721 33.9939 32.6515 33.9997 32.6327C33.6059 32.7221 32.6361 33.2676 31.641 33.9616Z" fill="black"/>
</g>
</g>
</svg>
