<svg width="241" height="217" viewBox="0 0 241 217" fill="none" xmlns="http://www.w3.org/2000/svg">
<path d="M163.238 114.048C163.238 114.048 147.552 133.003 133.235 145.279C127.539 150.165 122.059 153.992 117.872 155.147C113.773 156.277 109.98 158.631 106.641 161.438C97.9952 168.708 92.3928 179.02 92.3928 179.02L74.3178 130.454C74.3178 130.454 78.0679 124.228 80.3252 114.282C82.4149 105.075 82.2087 96.411 89.7477 83.3973C99.8053 66.0363 109.153 51.7716 109.495 50.2746C111.22 42.7315 116.437 33.9378 117.08 32.8892C117.359 32.4375 118.852 31.9924 120.565 32.3909C121.94 32.7096 123.966 34.5793 123.922 37.4464C123.7 51.9383 118.006 60.2116 117.953 60.6255C116.545 71.4759 111.563 78.618 113.293 81.2164C113.358 81.3125 113.519 81.3116 113.768 81.2237C118.176 79.6491 150.043 50.4459 153.15 50.3764C156.432 50.3048 163.238 114.048 163.238 114.048Z" fill="#E2B097"/>
<path d="M102.699 172.627C102.699 172.627 101.345 177.973 99.0237 186.773C98.9019 187.237 98.7765 187.708 98.6485 188.19C98.0298 190.532 97.3493 193.091 96.6114 195.84C95.2979 200.739 74.9383 235.628 73.3078 241.542C62.9075 239.578 15.2616 228.331 0.0976881 224.816C1.55568 222.968 31.3272 186.631 32.7404 184.846C41.6297 173.613 49.5218 163.719 55.3269 156.469L55.3272 156.467C55.3417 156.449 55.3562 156.43 55.372 156.412L55.3969 156.38C61.6441 148.574 65.4527 143.853 65.4527 143.853C65.4527 143.853 65.5434 143.877 65.7149 143.924C67.0513 144.293 73.3214 146.091 80.3381 149.179C80.7154 149.345 81.0946 149.514 81.4757 149.689C89.7855 153.471 98.8105 159.02 101.791 166.113C101.961 166.518 102.112 166.93 102.24 167.344C102.542 168.313 102.73 169.307 102.788 170.329C102.832 171.081 102.805 171.846 102.699 172.627Z" fill="#450090"/>
<path d="M197.186 53.137L185.637 63.776L174.304 74.2167C173.644 74.7194 172.997 74.7973 172.365 74.5855C170.38 73.9223 168.547 70.4124 166.966 68.3379L166.805 68.129C164.719 65.3956 165.248 61.453 167.982 59.3681L184.533 46.7363L184.533 46.7349L189.442 42.9891C192.175 40.9031 196.118 41.4328 198.203 44.1658L198.364 44.3747C200.45 47.1081 199.92 51.051 197.186 53.137Z" fill="#E2B097"/>
<path opacity="0.5" d="M133.235 145.28C127.539 150.166 122.059 153.993 117.872 155.149C113.773 156.279 109.98 158.632 106.641 161.44C104.024 159.392 101.052 157.012 98.1512 154.666C94.6192 151.809 95.7765 146.121 100.161 144.93C100.204 144.919 100.246 144.907 100.287 144.894C104.425 143.651 109.88 137.137 109.88 137.137L133.235 145.28Z" fill="#D38254"/>
<path d="M116.738 33.4857L112.372 42.0686C112.372 42.0686 114.157 43.3323 115.568 42.9995C116.98 42.6668 119.907 34.7369 116.738 33.4857Z" fill="#FFC197"/>
<path d="M55.3264 156.469C55.3264 156.469 66.0013 172.791 74.0749 180.009L82.2295 176.665L80.531 183.992C80.531 183.992 93.7396 189.621 98.6485 188.192L103.28 168.209L69.0904 139.849L55.3264 156.469Z" fill="#D23E7D"/>
<path d="M75.2901 128.766C75.2901 128.766 63.5552 139.782 51.6649 151.711C51.6649 151.711 67.0051 168.497 76.0463 174.472L92.4701 162.617L86.4701 180.08C86.4701 180.08 96.9853 186.929 102.568 187.071C102.568 187.071 105.932 170.671 108.4 160.037C108.4 160.038 78.9393 143.959 75.2901 128.766Z" fill="#450090"/>
<path d="M153.665 154.549L105.166 143.307C100.395 142.201 97.3971 137.393 98.5028 132.623L123.213 26.0183C124.318 21.2477 129.126 18.2494 133.897 19.3552L182.396 30.5968C187.167 31.7026 190.165 36.5103 189.059 41.2808L164.349 147.886C163.244 152.656 158.436 155.654 153.665 154.549Z" fill="#373C52"/>
<path d="M185.606 41.3467L161.469 145.48C160.65 149.013 157.11 151.238 153.604 150.425L107.035 139.631C103.529 138.818 101.331 135.263 102.149 131.731L126.287 27.5971C127.105 24.0643 130.644 21.8397 134.15 22.6523L180.719 33.4466C184.225 34.2592 186.425 37.8139 185.606 41.3467Z" fill="#F8D451"/>
<path d="M180.719 33.4466L107.611 139.765L107.035 139.631C103.529 138.818 101.331 135.264 102.149 131.731L126.286 27.5973C127.105 24.0646 130.644 21.8399 134.149 22.6526L180.719 33.4466Z" fill="#F8D451"/>
<path d="M165.31 92.3443L121.695 82.235C119.507 81.7277 118.131 79.5221 118.639 77.3339L121.162 66.4456C121.67 64.2571 123.875 62.8818 126.064 63.389L169.678 73.4984C171.866 74.0056 173.242 76.211 172.735 78.3995L170.211 89.2878C169.704 91.476 167.498 92.8515 165.31 92.3443Z" fill="white"/>
<path d="M136.739 75.7938C136.5 76.8264 136.034 77.7481 135.406 78.5171C135.406 78.5199 135.404 78.5222 135.402 78.5232C134.579 79.5313 133.479 80.2799 132.246 80.6765C132.041 80.7427 131.832 80.7993 131.619 80.8461L131.617 80.8457C131.191 80.9397 130.753 80.9912 130.308 80.999L130.307 80.9987C129.768 81.0065 129.221 80.9512 128.673 80.8242C128.105 80.6927 127.571 80.493 127.077 80.2341C125.897 79.6192 124.947 78.6729 124.317 77.5439C124.283 77.4804 124.249 77.4187 124.215 77.3541C123.511 75.9876 123.269 74.3754 123.644 72.7589C124.482 69.1423 128.093 66.8904 131.709 67.7284C135.325 68.5665 137.577 72.1772 136.739 75.7938Z" fill="#7FE1D3"/>
<path d="M153.769 75.5353L141.382 72.6641L141.049 74.1002L153.436 76.9715L153.769 75.5353Z" fill="#373C52"/>
<path d="M150.598 79.7767L140.287 77.3867L140.12 78.1048L150.431 80.4948L150.598 79.7767Z" fill="#373C52"/>
<path d="M158.902 81.7022L151.74 80.042L151.573 80.7601L158.735 82.4202L158.902 81.7022Z" fill="#373C52"/>
<path d="M167.552 83.708L160.39 82.0479L160.224 82.7659L167.386 84.4261L167.552 83.708Z" fill="#373C52"/>
<path d="M146.943 81.2315L139.78 79.5713L139.614 80.2893L146.776 81.9496L146.943 81.2315Z" fill="#373C52"/>
<path d="M155.593 83.2374L148.431 81.5771L148.264 82.2952L155.427 83.9554L155.593 83.2374Z" fill="#373C52"/>
<path d="M135.402 78.5225C134.579 79.5305 133.479 80.2792 132.246 80.6757C132.041 80.7419 131.832 80.7986 131.619 80.8454L131.617 80.845C131.191 80.9389 130.753 80.9905 130.308 80.9983L130.307 80.9979C128.983 80.2855 127.456 79.3469 126.346 78.5238C125.718 78.0571 125.224 77.6276 124.975 77.2961C124.971 77.2906 124.967 77.2853 124.963 77.28L124.973 77.2795C125 77.2784 125.026 77.2773 125.053 77.2746C125.254 77.2613 125.45 77.2209 125.636 77.1514C125.641 77.1495 125.645 77.1504 125.646 77.1493C126.163 76.9598 126.597 76.5779 126.841 76.0683C127.022 75.686 127.183 75.2376 127.284 74.7215C127.305 74.6184 127.364 74.1639 127.378 74.0564L127.38 74.0567C127.599 73.9982 127.969 74.2386 128.409 74.1204L130.081 75.4661C130.085 75.4716 130.09 75.4755 130.097 75.4799C130.097 75.4799 130.096 75.4828 130.096 75.4873C130.096 75.4902 130.097 75.4931 130.097 75.4991C130.095 75.5045 130.095 75.5131 130.095 75.5235C130.095 75.5249 130.097 75.5252 130.095 75.5263C130.095 75.5366 130.096 75.5484 130.094 75.5612C130.093 75.6047 130.091 75.6685 130.086 75.7489C130.084 75.7617 130.084 75.7749 130.084 75.7892C130.082 75.8006 130.082 75.8135 130.081 75.8263C130.079 75.8538 130.078 75.8812 130.076 75.9112C130.071 75.9672 130.067 76.029 130.061 76.0944C130.059 76.1231 130.056 76.153 130.054 76.183C130.052 76.1945 130.051 76.2073 130.051 76.219C130.047 76.2619 130.042 76.3061 130.037 76.353C130.032 76.4086 130.025 76.4684 130.018 76.5295C130.014 76.5737 130.008 76.6188 130.002 76.6673C129.998 76.7029 129.994 76.7384 129.989 76.775C129.985 76.8118 129.981 76.8489 129.975 76.8869C129.97 76.9252 129.966 76.9634 129.96 77.0028C129.955 77.0425 129.949 77.0818 129.943 77.1229L129.942 77.1286C129.904 77.4071 130.091 77.6618 130.361 77.714C130.361 77.714 130.362 77.7144 130.364 77.7133C130.383 77.7178 130.405 77.7197 130.426 77.722C130.922 77.7552 131.695 77.7974 132.554 77.8228C133.153 77.8408 134.236 78.1415 135.402 78.5225Z" fill="#E2B097"/>
<path d="M135.406 78.5158C134.705 78.2819 133.567 77.9234 132.997 77.8554C131.626 77.6921 130.437 77.7126 130.364 77.7131C130.362 77.7142 130.36 77.7138 130.36 77.7138C130.36 77.7152 130.361 77.717 130.362 77.7199L131.617 80.8446L131.618 80.8449C131.832 80.7981 132.041 80.7415 132.246 80.6753C133.479 80.2787 134.579 79.5301 135.402 78.5221L135.406 78.5158Z" fill="#F8D451"/>
<path d="M130.361 77.7141L132.245 80.6755C132.041 80.7417 131.832 80.7983 131.618 80.8451L131.617 80.8448C131.191 80.9387 130.753 80.9902 130.308 80.998L130.307 80.9977C129.768 81.0055 129.221 80.9503 128.673 80.8232C128.105 80.6917 127.571 80.492 127.077 80.2332C125.897 79.6182 124.946 78.6719 124.317 77.5429C124.558 77.4341 124.782 77.3547 124.975 77.2959C125.002 77.2889 125.028 77.2817 125.053 77.2746C125.294 77.2064 125.477 77.1747 125.574 77.1591C125.588 77.1565 125.6 77.1563 125.611 77.1543C125.621 77.1523 125.63 77.1516 125.636 77.1514C125.641 77.1496 125.645 77.1505 125.646 77.1494C125.65 77.1487 125.651 77.149 125.651 77.149C125.651 77.149 125.652 77.1507 125.653 77.1525C125.738 77.2419 127.77 79.4034 129.225 79.1353C130.647 78.8743 130.388 77.8108 130.362 77.7202C130.362 77.7173 130.36 77.7155 130.361 77.7141Z" fill="#F8D451"/>
<path d="M130.097 75.481C130.097 75.481 130.091 76.0826 129.943 77.1237C128.343 76.6969 127.453 74.7288 127.468 74.6214C127.687 74.5631 127.968 74.2387 128.409 74.1209L130.097 75.481Z" fill="#DA9F84"/>
<path d="M130.235 76.5944C130.235 76.5944 126.864 75.711 127.446 73.6201C128.029 71.5291 127.986 70.0069 130.163 70.4826C132.34 70.9581 132.534 71.872 132.509 72.6172C132.485 73.3624 131.127 76.7703 130.235 76.5944Z" fill="#E2B097"/>
<path d="M127.629 73.7977C127.703 73.6557 127.806 73.5171 127.947 73.4082C127.947 73.4082 127.857 72.6625 128.157 72.5682C128.458 72.4741 128.462 73.0943 128.603 73.0099C128.745 72.9255 129.377 72.5212 129.692 71.8692C130.007 71.2171 132.25 72.246 132.509 72.3924C132.557 72.4197 132.628 72.4291 132.714 72.424C133.325 72.387 133.654 71.6749 133.3 71.1756C133.278 71.1453 133.258 71.1152 133.24 71.0865C133.049 70.7772 131.708 68.6856 129.536 69.0467C127.363 69.408 126.982 70.3942 127.023 71.2734C127.05 71.8507 126.854 72.9098 126.955 73.6735C127.001 74.0172 127.468 74.1045 127.629 73.7977Z" fill="#412013"/>
<path d="M129.822 75.132C129.822 75.132 129.972 75.4896 130.412 75.6765C130.852 75.8636 131.036 75.529 131.036 75.529C131.036 75.529 130.647 75.2922 129.822 75.132Z" fill="white"/>
<path d="M127.077 80.2334C125.897 79.6184 124.947 78.6721 124.317 77.5431C124.283 77.4796 124.249 77.418 124.216 77.3533C124.812 77.2582 125.373 77.1841 125.574 77.1593C125.588 77.1567 125.6 77.1565 125.611 77.1545C125.621 77.1525 125.63 77.1518 125.636 77.1516C125.641 77.1498 125.645 77.1507 125.647 77.1496C125.65 77.1488 125.651 77.1492 125.651 77.1492C125.651 77.1492 125.652 77.1509 125.653 77.1526C125.679 77.1994 125.981 77.7478 126.346 78.5238C126.582 79.0233 126.844 79.6179 127.077 80.2334Z" fill="#F8D451"/>
<path d="M159.559 117.156L115.945 107.046C113.756 106.539 112.381 104.334 112.888 102.145L115.412 91.2571C115.919 89.0687 118.125 87.6934 120.313 88.2006L163.927 98.3099C166.116 98.8172 167.491 101.023 166.984 103.211L164.46 114.099C163.953 116.288 161.747 117.663 159.559 117.156Z" fill="white"/>
<path d="M130.988 100.604C130.47 102.839 128.893 104.553 126.91 105.338C125.685 105.824 124.304 105.954 122.923 105.634C120.917 105.169 119.332 103.852 118.46 102.152C117.76 100.788 117.521 99.1781 117.894 97.5684C118.732 93.9518 122.343 91.7 125.958 92.538C129.575 93.3764 131.827 96.9872 130.988 100.604Z" fill="#7FE1D3"/>
<path d="M148.018 100.346L135.631 97.4746L135.298 98.9108L147.685 101.782L148.018 100.346Z" fill="#373C52"/>
<path d="M144.847 104.588L134.536 102.198L134.37 102.916L144.681 105.306L144.847 104.588Z" fill="#373C52"/>
<path d="M153.151 106.516L145.989 104.855L145.823 105.574L152.985 107.234L153.151 106.516Z" fill="#373C52"/>
<path d="M161.802 108.521L154.639 106.861L154.473 107.579L161.635 109.24L161.802 108.521Z" fill="#373C52"/>
<path d="M141.192 106.044L134.03 104.384L133.863 105.102L141.026 106.762L141.192 106.044Z" fill="#373C52"/>
<path d="M149.843 108.05L142.68 106.39L142.514 107.108L149.676 108.768L149.843 108.05Z" fill="#373C52"/>
<path d="M126.91 105.34C125.685 105.826 124.304 105.957 122.923 105.636C120.917 105.172 119.332 103.855 118.46 102.155C118.973 102.113 119.58 102.156 120.28 102.351C120.327 102.363 120.373 102.376 120.421 102.391C121.773 102.794 123.116 102.996 124.249 103.342C125.438 103.705 126.397 104.225 126.894 105.303C126.9 105.316 126.905 105.329 126.91 105.34Z" fill="#E77D3B"/>
<path d="M123.613 104.246C121.417 103.991 120.28 102.349 120.28 102.349C120.28 102.349 122.072 101.373 122.657 98.3946L123.949 100.043L124.826 101.162C124.826 101.162 124.703 101.673 124.377 102.544C124.343 102.635 124.307 102.73 124.268 102.828C124.158 103.11 124.222 103.428 124.426 103.651C124.954 104.226 124.098 104.302 123.613 104.246Z" fill="#E2B097"/>
<path d="M124.826 101.162C124.826 101.162 124.703 101.673 124.377 102.544C123.229 102.062 122.321 99.8153 122.321 99.8153C122.97 99.7805 123.511 99.8726 123.949 100.042L124.826 101.162Z" fill="#DA9F84"/>
<path d="M125.466 101.258C125.466 101.258 121.942 101.035 122.115 98.843C122.287 96.6508 121.949 95.1458 124.206 95.1952C126.463 95.2449 126.833 96.1158 126.954 96.8613C127.074 97.6071 126.387 101.259 125.466 101.258Z" fill="#E2B097"/>
<path d="M122.159 98.6391C122.159 98.6391 122.521 98.6617 122.576 98.1691C122.631 97.6765 122.777 97.0497 123.14 97.257C123.502 97.4642 123.449 97.7809 123.652 97.6357C123.855 97.4906 124.035 96.7234 125.208 96.9387C126.381 97.154 126.758 97.6673 127.353 97.555C127.947 97.4428 128.165 96.6328 128.165 96.6328C128.165 96.6328 127.944 96.8889 127.691 96.928C127.691 96.928 128.876 95.9054 128.03 94.8197C127.184 93.734 125.993 94.0403 125.381 93.9371C124.034 93.7096 123.157 93.5902 122.521 94.3629C121.884 95.1352 121.502 97.6011 122.159 98.6391Z" fill="#412013"/>
<path d="M153.808 141.966L110.194 131.857C108.005 131.35 106.63 129.144 107.137 126.956L109.661 116.068C110.168 113.879 112.374 112.504 114.562 113.011L158.177 123.12C160.365 123.628 161.74 125.833 161.233 128.022L158.709 138.91C158.202 141.098 155.997 142.473 153.808 141.966Z" fill="white"/>
<path d="M142.268 125.155L129.88 122.284L129.547 123.72L141.935 126.592L142.268 125.155Z" fill="#373C52"/>
<path d="M139.096 129.399L128.785 127.009L128.619 127.727L138.93 130.117L139.096 129.399Z" fill="#373C52"/>
<path d="M147.401 131.324L140.238 129.664L140.072 130.382L147.234 132.042L147.401 131.324Z" fill="#373C52"/>
<path d="M156.051 133.33L148.889 131.67L148.722 132.388L155.885 134.048L156.051 133.33Z" fill="#373C52"/>
<path d="M135.442 130.854L128.279 129.193L128.113 129.911L135.275 131.572L135.442 130.854Z" fill="#373C52"/>
<path d="M144.092 132.859L136.929 131.199L136.763 131.917L143.926 133.578L144.092 132.859Z" fill="#373C52"/>
<path d="M125.237 125.415C124.768 127.44 123.43 129.036 121.706 129.904C120.354 130.584 118.764 130.813 117.172 130.444C116.571 130.305 116.009 130.09 115.492 129.81C114.421 129.232 113.546 128.38 112.935 127.369C112.786 127.123 112.653 126.868 112.536 126.603C111.972 125.321 111.802 123.85 112.143 122.38C112.981 118.763 116.592 116.511 120.207 117.349C123.824 118.188 126.076 121.799 125.237 125.415Z" fill="#7FE1D3"/>
<path d="M118.52 122.145C118.52 122.145 116.843 122.672 117.358 124.566C117.358 124.566 116.121 124.031 115.931 123.58C115.931 123.58 115.926 123.748 115.955 123.84C115.955 123.84 114.83 123.296 114.556 122.71C114.283 122.125 117.565 116.629 120.296 118.882C120.296 118.882 122.997 120.06 121.165 122.939C119.333 125.817 120.314 126.336 120.314 126.336C120.314 126.336 119.97 126.326 119.838 126.256C119.838 126.256 119.685 126.081 119.703 125.955C119.703 125.955 119.652 126.142 119.674 126.222C119.674 126.222 118.562 125.762 118.245 125.082C117.927 124.402 118.041 122.685 118.52 122.145Z" fill="#412013"/>
<path d="M115.216 126.694C115.215 126.694 115.214 126.695 115.212 126.695C115.206 126.692 115.208 126.692 115.216 126.694Z" fill="#E2B097"/>
<path d="M119.046 126.495C118.999 126.894 118.97 127.255 118.955 127.426C118.92 127.81 115.445 126.749 115.22 126.696C115.392 126.665 116.224 125.256 116.51 124.712C116.857 124.051 117.177 123.325 117.177 123.325L119.634 124.061L119.781 124.104C119.61 124.423 119.47 124.729 119.356 125.016C119.34 125.055 119.325 125.094 119.311 125.133C119.189 125.453 119.103 126.003 119.046 126.495Z" fill="#E2B097"/>
<path d="M116.891 122.994C116.891 122.994 116.784 121.618 117.094 120.654C117.315 119.966 118.869 117.803 121.035 119.379C121.035 119.379 121.681 119.806 122.092 120.576C122.419 121.189 122.761 122.32 120.863 123.921L120.286 124.496L116.891 122.994Z" fill="#412013"/>
<path d="M119.046 126.494C117.42 125.579 117.147 123.393 117.147 123.393C117.879 123.585 118.722 124.32 119.355 125.016C119.34 125.054 119.325 125.094 119.311 125.132C119.189 125.452 119.103 126.002 119.046 126.494Z" fill="#DA9F84"/>
<path d="M119.333 125.815C119.333 125.815 116.362 124.306 117.331 122.47C118.299 120.634 118.568 119.203 120.506 120.089C122.444 120.976 122.44 121.869 122.266 122.56C122.091 123.252 120.131 126.161 119.333 125.815Z" fill="#E2B097"/>
<path d="M122.717 121.495C122.123 119.793 121.041 119.38 121.036 119.379C120.359 118.656 118.994 119.728 118.994 119.728C118.101 120.94 116.753 121.192 116.753 121.192C116.753 121.192 117.114 121.808 118.52 122.144C118.95 122.247 119.429 122.157 119.889 121.983C118.943 122.558 117.942 122.802 117.942 122.802C119.7 122.896 121.314 121.308 121.605 121.005C121.748 121.424 121.876 121.901 121.826 122.168C121.726 122.713 121.284 123.709 121.581 123.825C121.581 123.825 123.117 122.641 122.717 121.495Z" fill="#412013"/>
<path d="M119.132 124.449C119.132 124.449 119.102 124.756 119.276 124.87C119.449 124.984 119.924 125.229 119.982 125.209C120.04 125.189 120.283 125.001 120.283 125.001C120.283 125.001 119.56 124.512 119.132 124.449Z" fill="white"/>
<path d="M121.706 129.905C120.354 130.584 118.764 130.814 117.172 130.445C116.571 130.306 116.009 130.091 115.492 129.81C114.421 129.233 113.546 128.381 112.935 127.37C113.709 126.979 114.738 126.658 115.192 126.414C115.355 126.327 115.577 125.999 115.593 125.759C115.608 125.557 115.911 125.279 116.085 125.383C116.096 125.39 116.108 125.397 116.12 125.405C116.482 125.633 117.361 126.332 118.108 126.307C118.259 126.303 118.437 126.251 118.618 126.201C118.781 126.157 118.948 126.112 119.096 126.108C119.199 126.104 119.294 126.117 119.374 126.16C119.776 126.378 119.084 127.304 119.324 127.372C119.655 127.466 121.152 127.838 121.463 128.574C121.594 128.884 121.65 129.303 121.706 129.905Z" fill="#450090"/>
<path d="M115.492 129.81C114.421 129.233 113.546 128.381 112.935 127.37C112.787 127.124 112.653 126.869 112.537 126.604C113.928 126.216 115.193 126.414 115.193 126.414L115.218 126.696L115.217 126.697L115.492 129.81Z" fill="#450090"/>
<path d="M171.06 67.5365L127.446 57.4271C125.257 56.9199 123.882 54.7145 124.389 52.5261L126.913 41.638C127.42 39.4496 129.626 38.0742 131.814 38.5814L175.429 48.6908C177.617 49.198 178.992 51.4037 178.485 53.5919L175.961 64.4799C175.454 66.6682 173.249 68.0437 171.06 67.5365Z" fill="white"/>
<path d="M159.52 50.7267L147.132 47.8555L146.8 49.2916L159.187 52.1628L159.52 50.7267Z" fill="#373C52"/>
<path d="M173.79 54.0353L161.403 51.1641L161.07 52.6002L173.457 55.4715L173.79 54.0353Z" fill="#373C52"/>
<path d="M156.349 54.9691L146.037 52.5791L145.871 53.2972L156.182 55.6872L156.349 54.9691Z" fill="#373C52"/>
<path d="M164.653 56.8955L157.49 55.2354L157.324 55.9534L164.486 57.6136L164.653 56.8955Z" fill="#373C52"/>
<path d="M173.303 58.9023L166.141 57.2422L165.974 57.9603L173.137 59.6204L173.303 58.9023Z" fill="#373C52"/>
<path d="M152.694 56.4249L145.531 54.7646L145.365 55.4827L152.527 57.1429L152.694 56.4249Z" fill="#373C52"/>
<path d="M161.344 58.4317L154.182 56.7715L154.015 57.4896L161.178 59.1498L161.344 58.4317Z" fill="#373C52"/>
<path d="M142.263 51.4155C141.793 52.9804 140.803 54.2467 139.54 55.083C139.08 55.386 138.586 55.6326 138.067 55.8153C137.437 56.0402 136.768 56.1713 136.087 56.1972C135.363 56.2266 134.623 56.137 133.891 55.917C133.491 55.7966 133.11 55.6426 132.751 55.4589L132.752 55.4573C132.279 55.2156 131.844 54.9218 131.453 54.5848C131.041 54.2316 130.674 53.8305 130.363 53.3937C130.167 53.123 129.993 52.8353 129.842 52.5382C129.583 52.0332 129.389 51.4944 129.264 50.9367C129.021 49.8504 129.046 48.6894 129.389 47.5465C130.458 43.9922 134.205 41.9754 137.76 43.0436C141.315 44.1119 143.331 47.8612 142.263 51.4155Z" fill="#7FE1D3"/>
<path d="M138.47 44.69C137.72 43.9604 136.92 44.0357 136.92 44.0357C134.292 42.8982 132.543 45.8352 132.252 46.9402C131.96 48.0429 131.732 49.2552 130.088 50.3092C129.757 50.5226 129.484 50.7315 129.264 50.9373C129.389 51.4949 129.583 52.034 129.842 52.5388C129.993 52.8355 130.167 53.1236 130.363 53.3943C130.674 53.831 131.041 54.2322 131.453 54.5853C131.844 54.9224 132.279 55.2161 132.752 55.4578C133.447 53.7662 134.925 53.8912 135.942 54.3218C136.623 54.6101 137.096 55.0353 136.99 55.1444C137.374 55.3673 137.715 55.495 138.019 55.5407C138.685 55.6396 139.169 55.3406 139.502 54.7846C140.87 52.5057 139.731 45.9134 138.47 44.69Z" fill="#412013"/>
<path d="M131.453 54.5856C131.041 54.2325 130.674 53.8313 130.363 53.3946C130.168 53.1239 129.993 52.8361 129.842 52.5391C130.039 52.3186 130.192 52.1477 130.274 52.0587C131.254 50.9982 132.322 50.9304 132.322 50.9304L131.453 54.5856Z" fill="#F8D451"/>
<path d="M138.068 55.8161C137.437 56.0409 136.768 56.1721 136.087 56.198C135.363 56.2273 134.623 56.1377 133.891 55.9177C133.491 55.7973 133.11 55.6434 132.751 55.4597L132.752 55.458C132.279 55.2163 131.844 54.9226 131.453 54.5855C131.041 54.2324 130.674 53.8312 130.363 53.3945C131.351 51.865 132.323 50.9304 132.323 50.9304C132.323 50.9304 132.829 50.8879 133.715 51.0312C134.357 51.1338 135.194 51.3349 136.184 51.7179C136.58 51.8698 137 52.0534 137.443 52.2702L138.019 55.5408L138.068 55.8161Z" fill="#F8D451"/>
<path d="M136.183 51.6961C136.134 51.1949 136.23 50.4833 136.486 49.6433L136.357 49.6308L134.181 49.4204C134.181 49.4204 134.034 50.0805 133.852 50.6897C133.851 50.6949 133.849 50.6997 133.848 50.7049C133.691 51.2342 133.172 51.6565 133.957 52.1212C134.2 52.2645 136.288 52.7487 136.183 51.6961Z" fill="#E2B097"/>
<path d="M134.181 49.4221C134.181 49.4221 134.034 50.0821 133.852 50.6914C135.011 51.0042 135.934 50.1387 136.357 49.6327L134.181 49.4221Z" fill="#FDF4DF"/>
<path d="M133.624 49.8822C133.624 49.8822 136.329 50.744 136.84 49.0513C137.351 47.3587 138.044 46.3299 136.338 45.7081C134.633 45.0864 134.101 45.6304 133.793 46.154C133.485 46.6776 132.934 49.6144 133.624 49.8822Z" fill="#E2B097"/>
<path d="M135.113 45.2953C135.113 45.2953 135.26 47.5056 136.314 48.1425C137.368 48.7795 137.956 48.6225 137.956 48.6225C137.956 48.6225 137.288 47.6632 137.472 46.3938C137.472 46.3938 135.959 44.5185 135.113 45.2953Z" fill="#412013"/>
<path d="M135.249 45.513C135.249 45.513 134.635 45.5535 134.287 45.8877C133.947 46.2146 133.601 46.6791 133.452 47.3317C133.452 47.3317 133.297 45.813 134.157 45.2385C135.069 44.6295 135.249 45.513 135.249 45.513Z" fill="#412013"/>
<path d="M136.087 56.1967C135.971 55.9737 135.843 55.7344 135.706 55.4799C135.563 55.2156 135.697 54.7832 135.942 54.3207C136.451 53.3604 137.443 52.2686 137.443 52.2686C137.443 52.2686 139.195 52.9313 139.501 54.7832C139.515 54.8551 139.524 54.9292 139.531 55.0041C139.535 55.0305 139.536 55.0563 139.54 55.0824C139.08 55.3854 138.585 55.632 138.067 55.8147C137.437 56.0396 136.768 56.1708 136.087 56.1967Z" fill="#F8D451"/>
<path d="M137.911 33.7807L136.846 34.2245L136.078 33.3633C136.348 33.1243 136.728 33.0128 137.107 33.1005C137.483 33.1877 137.774 33.4495 137.911 33.7807Z" fill="#373C52"/>
<path d="M137.477 31.5023C136.559 31.2895 135.641 31.5581 134.987 32.142L135.473 32.6832C135.957 32.2519 136.635 32.0552 137.312 32.2121C137.984 32.3679 138.504 32.8374 138.75 33.4304L139.423 33.1503C139.088 32.3471 138.385 31.7129 137.477 31.5023Z" fill="#373C52"/>
<path d="M138.181 28.4677C136.238 28.0174 134.296 28.5845 132.913 29.8198L133.399 30.3612C134.611 29.2811 136.315 28.7832 138.016 29.1775C139.703 29.5686 141.008 30.7485 141.628 32.2361L142.299 31.9552C141.593 30.2584 140.107 28.9141 138.181 28.4677Z" fill="#373C52"/>
<path d="M137.795 30.1277C136.414 29.8074 135.029 30.2072 134.041 31.0826L134.526 31.6241C135.344 30.9037 136.488 30.5729 137.631 30.8378C138.764 31.1005 139.641 31.8897 140.063 32.8851L140.734 32.6066C140.226 31.3993 139.165 30.4453 137.795 30.1277Z" fill="#373C52"/>
<path d="M181.059 224.543L141.45 221.404L132.66 219.413C132.66 219.413 120.661 206.799 116.722 198.753C115.969 197.215 114.703 185.176 113.842 175.438C113.306 169.357 112.927 164.172 112.93 163.003C112.936 161.146 115.395 151.518 117.308 144.303L117.335 144.203C118.396 140.205 119.283 136.968 119.484 136.241L119.526 136.087C119.526 136.087 119.527 136.087 119.529 136.086C119.615 136.062 122.22 135.361 124.802 138.312C127.349 141.228 125.997 156.717 126.236 159.615C126.466 162.422 133.656 176.202 134.106 177.06C134.113 177.074 134.121 177.088 134.127 177.102L138.335 158.949L133.767 123.976C133.767 123.976 128.37 107.653 131.952 101.445C133.219 99.2509 134.943 99.1825 136.178 99.5195C136.306 99.5542 136.428 99.5935 136.545 99.6354C136.886 99.7578 137.194 99.948 137.449 100.192C137.726 100.452 137.942 100.773 138.083 101.135C138.083 101.135 143.959 114.081 144.73 115.955C146.454 120.151 150.625 133.49 150.625 133.49L158.613 135.698C159.879 136.048 160.977 136.839 161.71 137.928C163.957 141.272 168.798 148.502 169.357 149.541C169.357 149.541 169.356 149.544 169.359 149.547C169.361 149.55 169.361 149.552 169.363 149.555C169.365 149.558 169.367 149.561 169.369 149.565C170.085 150.754 179.418 157.588 183.315 163.051C183.316 163.051 183.316 163.051 183.316 163.051C184.147 164.216 184.731 165.32 184.931 166.292C186.074 171.851 181.059 224.543 181.059 224.543Z" fill="#E2B097"/>
<path d="M150.625 133.489C150.625 133.489 155.27 147.421 156.132 148.2C156.994 148.979 160.662 150.639 161.407 149.422C162.153 148.205 150.625 133.489 150.625 133.489Z" fill="#DA9F84"/>
<path d="M183.314 163.05C183.23 163.004 178.316 160.352 176.145 159.317C174.006 158.297 169.569 149.943 169.363 149.555C170.034 150.716 179.407 157.572 183.314 163.05Z" fill="#DA9F84"/>
<path d="M134.128 177.102L138.335 158.948C138.335 158.948 140.976 167.162 140.389 171.195C139.801 175.227 136.196 181.14 134.128 177.102Z" fill="#DA9F84"/>
<path d="M133.921 106.86C133.541 105.633 132.867 103.411 132.732 102.224C132.694 101.889 132.852 101.271 133.387 100.698C133.707 100.355 134.162 100.027 134.79 99.7862C135.086 99.6731 135.381 99.5801 135.684 99.5422C136.039 99.4991 136.393 99.5138 136.744 99.5901C137.06 99.6595 137.346 99.9192 137.495 100.296C137.496 100.297 137.496 100.3 137.497 100.301C137.993 101.566 138.596 103.27 138.928 104.762C139.159 105.794 138.77 106.833 138.011 107.154L137.656 107.305L135.84 108.079C135.086 108.4 134.23 107.863 133.921 106.86Z" fill="#FFD3B6"/>
<path d="M133.922 106.859C133.541 105.632 132.867 103.41 132.732 102.223C132.695 101.887 132.852 101.27 133.387 100.697C133.508 100.637 133.635 100.581 133.772 100.529C134.068 100.415 134.362 100.323 134.665 100.285C135.02 100.242 135.374 100.256 135.725 100.333C136.041 100.402 136.327 100.662 136.477 101.038C136.478 101.04 136.478 101.042 136.479 101.044C136.975 102.308 137.578 104.012 137.91 105.505C138.058 106.166 137.952 106.829 137.657 107.304L135.841 108.078C135.086 108.398 134.23 107.862 133.922 106.859Z" fill="#FFC197"/>
<path d="M158.042 217.168L141.45 221.404L132.659 219.413C132.659 219.413 120.661 206.799 116.721 198.753C115.969 197.215 114.703 185.176 113.842 175.438L113.843 175.435C113.957 176.727 118.138 196.226 120.026 198.77C121.914 201.313 131.56 215.813 134.996 216.485C138.406 217.153 157.74 217.167 158.042 217.168Z" fill="#DA9F84"/>
<path d="M132.659 219.415C132.659 219.415 170.785 213.409 181.359 220.927C181.359 220.927 184.982 250.718 188.329 268.204C167.493 263.375 133.126 255.531 133.126 255.531L132.659 219.415Z" fill="#450090"/>
<path d="M119.526 136.086L117.309 144.304C117.309 144.304 118.985 144.991 120.147 144.481C121.309 143.971 122.451 136.662 119.526 136.086Z" fill="#FFC197"/>
</svg>
