<svg width="152" height="157" viewBox="0 0 152 157" fill="none" xmlns="http://www.w3.org/2000/svg">
<path d="M136.614 61.3866C135.9 58.2384 124.71 57.0416 112.585 55.0717C100.46 53.1018 90.8167 55.1769 90.8167 55.1769C90.8167 55.1769 111.611 103.893 117.989 110.459C124.367 117.025 145.162 117.617 145.162 117.617C145.162 117.617 138.032 67.6409 136.614 61.3866Z" fill="#8B2D6C"/>
<g opacity="0.3">
<path d="M96.3912 67.0488C96.5836 66.9079 96.7864 66.7584 96.9977 66.6026C97.4403 66.6744 97.8788 66.7449 98.2997 66.8135C98.9871 68.6032 96.3153 68.9252 96.3912 67.0488ZM101.093 76.6031C101.577 76.7218 101.905 76.4292 102.336 76.1917C102.494 73.5402 99.2395 75.1331 101.093 76.6031ZM104.78 83.2259C104.708 83.5439 104.647 83.8148 104.585 84.0872C104.827 84.3491 105.056 84.597 105.311 84.8721C106.312 84.4426 107.152 83.6834 105.927 82.9789C105.517 83.0674 105.139 83.1482 104.78 83.2259ZM109.876 87.0926C109.692 87.1911 109.546 87.2692 109.417 87.3374C109.124 87.2525 109.142 86.776 108.647 86.9038C108.61 90.2232 111.858 88.4149 109.876 87.0926ZM106.583 88.0861C106.436 87.8129 106.331 87.5171 106.133 87.2859C105.35 87.2154 105.09 87.2141 104.879 87.5289L105.516 88.8507C105.949 88.9356 106.377 88.7265 106.583 88.0861ZM108.675 83.837C108.926 84.844 110.133 84.9411 110.513 84.3134C110.294 83.92 110.074 83.5253 109.853 83.1293C109.363 83.0272 108.833 83.2444 108.675 83.837ZM108.05 90.7574C108.079 90.3934 108.578 90.2349 108.517 89.7201C107.849 88.7925 106.914 88.8033 106.597 89.9978C107.075 90.253 107.266 90.9747 108.05 90.7574ZM115.816 94.8608C116.019 94.8951 116.186 94.8702 116.325 94.8129C116.061 94.3319 115.792 93.8428 115.516 93.3411C115.014 93.762 114.896 95.1231 115.816 94.8608ZM110.927 86.4662C111.147 86.6826 111.471 86.7042 111.787 86.604C111.562 86.1984 111.335 85.7902 111.106 85.3801C110.875 85.6402 110.767 86.0273 110.927 86.4662ZM93.0141 58.3332C91.7148 59.3466 92.4645 60.3388 93.9046 59.6672C94.8688 59.2793 93.873 58.2144 93.0141 58.3332ZM98.1398 71.8544C98.5079 71.0221 97.5554 70.6576 96.8491 70.8825L97.6024 72.4442C97.8228 72.3796 98.0206 72.1994 98.1398 71.8544ZM116.431 98.7577C116.725 98.3458 116.722 97.9525 116.587 97.5496C116.127 97.4747 115.719 97.4087 115.316 97.3428C114.345 98.237 115.343 99.4699 116.431 98.7577ZM108.631 92.0739C108.929 92.2523 109.028 92.4632 109.187 92.7115C109.582 92.992 110.303 92.5634 110.49 92.1877C110.805 90.6707 108.978 90.8292 108.631 92.0739ZM103.449 78.652C104.783 78.3359 104.369 76.4595 103.178 76.7693C102.459 77.3871 102.55 78.3309 103.449 78.652ZM117.272 100.828C117.475 100.897 117.685 100.969 117.88 101.035C118.418 100.777 118.418 100.777 118.796 100.332C118.83 99.5656 118.188 99.5164 117.733 99.2816C116.887 99.749 116.821 99.9766 117.272 100.828ZM108.259 86.664C108.842 85.9555 108.728 85.1642 107.994 85.2153C107.536 85.4659 106.813 85.1209 106.673 85.7793C106.995 86.6383 107.338 86.8853 108.259 86.664ZM112.333 90.2841C112.708 89.6063 112.411 89.1894 111.768 88.9934C111.071 89.1009 111.012 89.6103 110.87 90.0881C110.948 90.8631 112.254 91.247 112.333 90.2841ZM121.829 105.239C121.764 105.041 121.559 104.599 121.225 103.937C121.179 104.032 121.126 104.15 121.056 104.308C121.243 104.782 121.506 105.161 121.829 105.239ZM105.474 78.7428C105.231 79.0386 104.971 79.357 104.741 79.637C104.852 80.3121 105.337 80.4914 105.922 80.7249C106.147 80.2819 106.349 79.8845 106.557 79.4744C106.271 79.1185 105.996 78.8074 105.474 78.7428ZM107.12 78.2352C107.035 78.0825 106.949 77.9299 106.864 77.7777C106.823 77.8504 106.78 77.9249 106.732 78.0062C106.859 78.1038 106.994 78.1665 107.12 78.2352ZM117.717 103.468C117.672 103.47 117.63 103.479 117.59 103.488C117.916 103.665 118.235 103.836 118.544 103.998C118.398 103.715 118.115 103.487 117.717 103.468ZM100.658 67.6553C100.857 68.0143 101.17 68.1769 101.506 68.2514C101.511 68.2496 101.515 68.2478 101.519 68.2456C101.3 67.8549 101.083 67.4702 100.869 67.0894C100.781 67.2421 100.707 67.4272 100.658 67.6553ZM98.2031 63.2842C98.0712 63.0412 97.9258 62.7739 97.7939 62.5309C96.8419 62.4212 96.5768 62.8271 96.3731 63.5687C96.9187 64.4277 98.0522 64.3477 98.2031 63.2842ZM94.0631 63.6382C94.1422 62.7698 93.6084 62.2952 92.8677 62.6293L93.5867 64.1201C93.7737 64.042 93.9448 63.8907 94.0631 63.6382ZM103.765 85.2193L104.197 86.114C104.237 85.927 104.252 85.7188 104.304 85.5057C104.103 85.3634 103.928 85.2789 103.765 85.2193ZM120.167 103.234C120.296 103.042 120.429 102.845 120.56 102.649C120.345 102.237 120.106 101.786 119.844 101.295C119.799 101.258 119.755 101.219 119.715 101.17C119.123 101.843 118.967 103.263 120.167 103.234ZM93.4241 56.1921C93.7217 55.848 93.9746 55.5544 94.2135 55.2776C94.0004 54.9005 93.8852 54.6973 93.8852 54.6973L92.4532 54.886C92.5981 55.2491 92.73 55.5829 92.8777 55.9518C93.0113 56.0105 93.1879 56.0882 93.4241 56.1921ZM107.388 82.5937C107.902 82.4293 108.484 82.5128 108.584 81.8196C107.971 81.0848 107.71 80.6328 106.799 81.2154C106.686 81.8002 106.885 82.2477 107.388 82.5937ZM94.4732 61.2402C94.3138 62.0468 95.4636 62.2482 95.9572 61.8336C95.8628 61.5563 96.0606 61.3639 96.1406 61.1332C96.1378 60.1807 94.4547 60.2652 94.4732 61.2402ZM100.411 77.6883C100.369 77.0958 100.06 76.8293 99.706 76.8054L100.288 78.0107C100.349 77.9195 100.394 77.8138 100.411 77.6883ZM104.496 81.5473C103.628 81.0334 103.628 81.0334 102.933 81.1833C102.519 81.583 102.747 81.9691 102.957 82.4469C103.699 82.441 104.821 82.6736 104.496 81.5473ZM111.083 93.4427C110.349 94.5433 112.002 95.572 112.58 94.2371C112.531 93.365 111.825 92.9071 111.083 93.4427ZM94.5008 65.0622C94.6398 65.3756 94.7848 65.7034 94.9293 66.0291C95.3304 66.0291 95.6944 66.0291 96.0746 66.0291C96.1636 65.8042 96.244 65.5996 96.3375 65.3607C96.0191 65.0238 95.7481 64.7384 95.483 64.457C95.0427 64.4922 94.6814 64.6033 94.5008 65.0622ZM116.797 102.161C116.289 101.457 115.679 101.159 114.975 101.812C114.984 101.897 114.998 101.979 115.017 102.057C115.483 102.322 115.959 102.59 116.436 102.855C116.588 102.712 116.717 102.488 116.797 102.161ZM110.914 98.2239C111.22 98.6317 111.404 98.8765 111.599 99.1375C112.238 98.988 112.238 98.988 112.511 98.0107C112.255 97.2507 110.882 97.2859 110.914 98.2239ZM94.4524 57.3342C94.9478 57.9827 95.4013 58.083 95.7151 57.9367C95.4026 57.3825 95.1262 56.893 94.8873 56.4698C94.7415 56.7584 94.5983 57.0434 94.4524 57.3342ZM104.519 73.8388C104.188 73.5046 104.114 73.0177 103.593 72.8981C102.469 73.1672 102.463 74.252 103.583 74.5424C103.999 74.4435 104.238 74.1761 104.519 73.8388ZM98.6303 69.4441C98.7504 69.6803 98.8471 69.8709 98.9875 70.1464C101.584 70.6599 99.3709 66.9373 98.6303 69.4441ZM91.1101 56.3483C90.6937 56.3913 90.6657 56.86 90.5772 57.248C90.2466 57.6485 90.9674 57.9245 91.2564 57.8653C92.6284 58.0509 92.1212 56.0796 91.1101 56.3483ZM113.656 99.5051C113.513 99.9965 112.842 99.8691 112.775 100.416C113.012 100.979 113.565 100.875 114.018 101.034C114.394 100.709 114.816 100.45 114.474 99.9414C114.379 99.6045 113.95 99.0738 113.656 99.5051ZM102.448 71.4674C102.288 71.4019 102.116 71.3314 101.948 71.2619C101.936 71.1467 101.925 71.041 101.909 70.8965C101.629 70.8613 101.368 70.8039 101.103 70.724C100.788 71.0325 100.758 71.4263 100.65 71.7496C101.079 72.7066 102.125 72.4108 102.448 71.4674ZM102.43 79.8497C102.277 78.7487 101.452 78.9817 100.985 79.4563L101.501 80.5271C101.618 80.5235 101.739 80.5181 101.885 80.4964C102.063 80.285 102.242 80.0732 102.43 79.8497ZM108.877 95.614C108.937 95.7405 108.957 95.871 108.967 96.0038L109.401 96.9047C111.071 96.7964 110.384 94.4701 108.877 95.614ZM113.748 92.7522C115.549 93.062 114.193 90.379 112.963 91.6277C112.872 92.3886 113.295 92.418 113.748 92.7522ZM90.0095 55.208L89.3312 55.2975L89.5525 55.7567C89.8808 55.6244 90.0172 55.4257 90.0095 55.208ZM113.341 95.5124C112.531 96.772 114.017 97.6219 114.621 96.1799C114.227 95.3783 114.227 95.3783 113.341 95.5124ZM108.417 94.2511C107.983 93.892 108.294 93.3903 107.875 93.0633C107.782 93.0972 107.688 93.1288 107.596 93.1618L108.306 94.6349C108.422 94.5735 108.481 94.4606 108.417 94.2511ZM105.992 76.2187C105.748 75.7829 105.505 75.3494 105.263 74.9172C105.17 74.9732 105.073 75.0531 104.973 75.1602C104.299 75.9275 105.283 76.4631 105.992 76.2187ZM98.7364 65.0522C98.8967 65.4456 99.0413 65.7996 99.1858 66.1542C99.8117 66.2368 99.9689 66.2386 100.177 65.8588C99.9761 65.5011 99.7783 65.1493 99.5836 64.8029C99.2964 64.7478 98.9889 64.8129 98.7364 65.0522ZM99.9892 74.2028C100.461 73.4937 100.26 73.463 99.8379 73.1071C98.3033 72.2577 98.642 74.7095 99.9892 74.2028Z" fill="#421B36"/>
</g>
<path d="M104.163 60.0225C104.163 60.0225 95.2379 71.5602 104.833 72.1839C114.429 72.8075 135.747 59.6562 121.853 56.527C107.959 53.3982 104.163 60.0225 104.163 60.0225Z" fill="#F7C569"/>
<path d="M105.498 60.5699C105.498 60.5699 99.641 70.5419 106.288 71.0337C112.936 71.5255 129.229 60.8201 121.854 56.5271C114.479 52.235 105.498 60.5699 105.498 60.5699Z" fill="#FFBFBF"/>
<path d="M3.63319 57.1811C3.63319 57.1811 40.2461 158.311 46.3433 156.329C60.8856 151.602 119.38 127.155 119.199 121.864C118.868 112.161 77.5699 27.3012 75.5399 24.5301C73.6039 21.8864 2.69791 53.4337 3.63319 57.1811Z" fill="#8B2D6C"/>
<path d="M6.30285 59.2094C6.30285 59.2094 40.7815 154.999 46.8787 153.017C61.421 148.29 119.041 125.878 115.056 117.025C111.072 108.171 76.7617 32.4172 74.7317 29.6456C72.7952 27.0028 5.36757 55.4619 6.30285 59.2094Z" fill="white"/>
<path d="M46.6137 153.389C45.2227 153.389 41.0629 150.056 24.0083 106.973C14.7323 83.5399 6.0898 59.5562 6.00354 59.3168L5.99405 59.2861C5.86805 58.7808 5.48464 57.2435 23.6511 48.7275C33.3955 44.1595 45.8328 38.8567 56.1092 34.8897C73.9275 28.0112 74.6975 29.0617 74.9879 29.4577C77.0423 32.2622 111.501 108.349 115.346 116.894C115.679 117.633 115.642 118.472 115.237 119.386C110.749 129.523 59.6345 149.205 46.9772 153.32C46.8792 153.351 46.7618 153.389 46.6137 153.389ZM6.6105 59.1258C6.9325 60.0196 15.4584 83.6478 24.5999 106.74C41.4387 149.278 45.7177 153.053 46.7803 152.715C59.3829 148.618 110.252 129.074 114.656 119.129C114.989 118.376 115.025 117.73 114.766 117.155C110.923 108.615 76.4981 32.5955 74.4749 29.8335C72.3523 28.2827 23.5161 47.9512 9.40145 56.8095C6.68682 58.513 6.60824 59.059 6.6105 59.1258Z" fill="#421B36"/>
<path d="M5.6029 58.57C5.6029 58.57 42.2005 150.804 48.2977 148.822C62.84 144.095 121.819 122.151 117.834 113.297C113.85 104.444 76.9573 29.8345 74.9273 27.063C72.9913 24.4201 4.66761 54.8225 5.6029 58.57Z" fill="white"/>
<path d="M48.0239 149.194C46.6172 149.194 42.349 145.937 24.3727 104.565C14.5723 82.0103 5.39918 58.9172 5.3075 58.6869L5.29441 58.6467C4.78319 56.5973 18.8644 49.5156 30.767 43.9359C44.5913 37.4558 73.6366 24.7624 75.1838 26.875C77.146 29.5544 113.879 103.733 118.124 113.166C118.448 113.887 118.415 114.699 118.024 115.581C113.423 125.973 58.3405 145.891 48.3961 149.124C48.2967 149.156 48.1775 149.194 48.0239 149.194ZM5.91085 58.4841C6.3033 59.4718 15.3269 82.153 24.9562 104.313C42.7473 145.257 47.1406 148.858 48.1996 148.519C64.5303 143.21 113.277 124.733 117.443 115.323C117.762 114.604 117.795 113.984 117.544 113.427C113.303 104.003 76.6262 29.9202 74.6708 27.2507C72.5915 25.8124 24.1613 46.3484 9.21574 55.7753C6.04273 57.7764 5.91266 58.401 5.91085 58.4841Z" fill="#421B36"/>
<path d="M57.7052 83.5988C67.6718 78.8099 77.6469 74.036 87.5223 69.061C87.9793 68.8307 87.5774 68.1447 87.1213 68.3746C77.2459 73.35 67.2707 78.1239 57.3042 82.9124C56.8431 83.1341 57.2459 83.8196 57.7052 83.5988Z" fill="#421B36"/>
<path d="M59.9463 88.8091C70.2777 84.6398 80.3193 79.7814 90.2136 74.6701C90.6684 74.4353 90.2665 73.7493 89.8126 73.9836C79.9797 79.0629 70.0023 83.8992 59.7354 88.0423C59.2666 88.2315 59.4712 89.0006 59.9463 88.8091Z" fill="#421B36"/>
<path d="M70.1339 112.194C80.1005 107.405 90.0756 102.632 99.951 97.6566C100.408 97.4263 100.006 96.7407 99.55 96.9701C89.6746 101.946 79.6994 106.719 69.7329 111.508C69.2718 111.73 69.6746 112.415 70.1339 112.194Z" fill="#421B36"/>
<path d="M72.3763 117.407C82.7078 113.237 92.7494 108.379 102.644 103.268C103.098 103.033 102.697 102.347 102.243 102.581C92.4102 107.661 82.4323 112.497 72.1654 116.64C71.6966 116.829 71.9012 117.598 72.3763 117.407Z" fill="#421B36"/>
<path d="M74.939 122.612C83.9893 118.359 93.04 114.105 102.09 109.851C102.553 109.634 102.15 108.948 101.689 109.165C92.639 113.418 83.5883 117.672 74.538 121.926C74.0751 122.144 74.4784 122.829 74.939 122.612Z" fill="#421B36"/>
<path d="M29.0016 92.123C29.0016 92.123 35.3291 110.562 39.7919 109.398C44.2548 108.233 57.9173 102.49 57.8983 100.399C57.8631 96.4748 51.3559 82.8113 48.6467 81.7762C44.462 80.178 27.9214 89.4193 29.0016 92.123Z" fill="white"/>
<path d="M39.3856 109.767C37.4563 109.767 35.1215 106.935 32.4367 101.333C30.352 96.9838 28.775 92.4397 28.7032 92.232C28.4611 91.6124 28.8292 90.8175 29.8286 89.8028C33.507 86.0671 45.2529 80.1383 48.7597 81.4787C50.7079 82.2225 53.6926 88.0853 54.5611 89.8638C56.3666 93.5629 58.197 98.2538 58.2164 100.395C58.239 102.935 43.5928 108.733 39.8724 109.704C39.7135 109.745 39.5509 109.767 39.3856 109.767ZM47.4206 81.9019C43.1999 81.9019 33.4478 87.0331 30.282 90.2485C29.1995 91.3482 29.2325 91.8427 29.2971 92.0039L29.3025 92.0188C31.0358 97.0701 36.2943 109.964 39.7112 109.089C45.0429 107.697 57.595 102.041 57.5801 100.401C57.5439 96.3556 50.9482 82.9948 48.5325 82.0717C48.2299 81.9565 47.8542 81.9019 47.4206 81.9019Z" fill="#8B2D6C"/>
<g opacity="0.3">
<path d="M53.4635 45.0839C53.3705 44.6766 53.534 44.276 54.1626 44.3279C54.1626 44.1572 54.1626 43.986 54.1626 43.8153C54.3523 43.8488 54.542 43.8813 54.7822 43.9228C54.8472 43.9982 54.901 44.0809 54.9493 44.1658C54.4656 44.4684 53.9693 44.775 53.4635 45.0839ZM54.1626 39.8886C53.7444 40.0525 53.4617 40.3235 53.4183 40.757C53.6103 41.0849 53.8546 41.1648 54.1626 41.0835C54.1626 41.1974 54.1626 41.3116 54.1626 41.4254C55.4641 41.4534 55.0789 40.2553 54.1626 39.8886ZM61.9122 35.9383C61.7934 36.2911 61.6814 36.6262 61.5676 36.9635C62.6673 38.5338 64.2574 36.5435 62.7084 35.6462C62.3819 35.7663 62.1457 35.8534 61.9122 35.9383ZM56.035 42.003C55.7934 42.3079 55.6416 42.6299 55.545 42.9401C55.6434 43.2589 55.829 43.3976 56.0408 43.4753C56.4866 43.1908 56.9192 42.9108 57.3379 42.6357C57.1197 42.1584 56.5647 42.0893 56.035 42.003ZM58.5206 39.8276C58.265 39.9681 58.0234 40.099 57.808 40.2165C57.6987 41.2764 58.0144 41.7939 58.9104 41.5586C59.0571 41.2141 59.4004 40.9043 59.2536 40.4102C59.0224 40.2259 58.7848 40.0372 58.5206 39.8276ZM57.3433 30.6699C57.0963 29.5806 55.8977 29.4555 55.5671 30.5543C56.2558 31.4701 56.6054 31.4922 57.3433 30.6699ZM59.2139 31.9579C58.863 31.9231 58.5608 31.8933 58.2262 31.8608C58.0631 32.3137 57.6535 32.6574 57.8053 33.1677C58.643 33.3953 59.6018 33.1871 59.2139 31.9579ZM59.4848 38.7248C60.3077 39.9685 61.1147 39.2821 61.5243 38.1571C61.1269 38.0654 60.7922 37.9878 60.4711 37.9141C60.1948 38.4701 60.1948 38.4701 59.4848 38.7248ZM59.1488 36.2992C58.6177 35.6976 58.1584 36.1854 57.7678 36.6636C58.158 37.6396 58.5012 37.3894 59.2626 37.1306C59.6348 36.9183 59.399 36.5029 59.1488 36.2992ZM55.3707 38.6173C55.8092 38.8169 55.9903 38.9903 56.1361 39.4663C58.4687 39.2559 56.3452 37.066 55.3707 38.6173ZM57.3446 34.7226C56.9278 34.178 55.722 34.0556 55.4682 34.7574C55.8557 35.3765 57.0561 35.3653 57.3446 34.7226ZM60.6012 33.8691C60.5289 34.0036 60.4644 34.1242 60.3795 34.2823C58.6064 34.2489 60.645 35.4971 61.5433 34.6684C61.2443 34.3071 61.1038 33.8524 60.6012 33.8691ZM53.893 31.8861C53.7688 32.2523 53.6428 32.6226 53.5276 32.9609C53.7575 33.5123 53.7625 33.5109 54.1626 33.5715C54.1626 33.4577 54.1626 33.3443 54.1626 33.2305C54.4092 33.2951 54.6521 33.3195 54.8554 33.1971C55.3711 32.4068 55.0599 31.9836 54.1626 32.0355C54.1626 31.9786 54.1626 31.9213 54.1626 31.8648C54.0777 31.8716 53.9937 31.8779 53.893 31.8861ZM53.398 36.2337C53.7593 36.7553 53.7593 36.7553 53.8397 37.2909C53.9454 37.3027 54.0542 37.3153 54.1626 37.3275C54.4661 37.4192 54.6752 37.2065 54.8928 37.1297C54.9845 36.8596 55.0622 36.6275 55.1372 36.4058C54.8928 36.0517 54.5212 35.9311 54.1626 35.7911C54.1626 35.848 54.1626 35.9049 54.1626 35.9618C53.8325 35.7663 53.5272 35.8602 53.398 36.2337ZM30.3072 53.8122C31.3161 52.9198 29.6749 51.5799 28.8078 52.489C28.1512 53.609 29.3064 54.6133 30.3072 53.8122ZM28.3535 55.7071C28.47 55.116 28.3463 54.6486 27.9042 54.2209C27.4386 54.2624 27.0213 54.2995 26.5764 54.3397C26.2423 55.5897 27.2764 56.7242 28.3535 55.7071ZM30.5669 49.8674C30.2665 48.6078 30.9476 47.9295 29.0066 48.1783C28.3215 49.3855 29.2974 50.4314 30.5669 49.8674ZM25.6664 56.212C25.5418 56.2202 25.4339 56.2477 25.3345 56.2825C25.6868 56.6925 26.0738 57.0344 26.4974 57.2814C26.5123 56.7896 26.2255 56.2744 25.6664 56.212ZM30.8816 43.5737C31.7713 43.8655 32.5196 43.4662 32.4885 42.6795C31.9402 42.9848 31.4037 43.2833 30.8816 43.5737ZM32.6619 55.2257C32.6632 54.7461 31.9669 54.0877 31.4949 54.1414C31.0126 54.2588 31.1657 54.8251 30.85 55.0812C30.7696 55.1471 30.7764 55.4348 30.8514 55.554C31.2971 56.3642 32.642 56.2409 32.6619 55.2257ZM52.2288 37.6883C51.074 38.1354 50.9503 39.381 52.2238 39.726C53.4518 39.4144 53.263 38.205 52.2288 37.6883ZM25.6913 54.0913C25.9726 53.66 26.9481 53.2883 26.3384 52.6872C25.8123 52.1963 24.8585 51.9746 24.4941 52.778C24.812 53.3186 24.8956 54.0949 25.6913 54.0913ZM28.6042 51.0361C28.391 50.4138 27.8942 50.3068 27.5081 50.0092C26.7508 50.5497 26.3484 51.3197 27.1509 52.0197C27.9959 52.1891 28.0889 51.3486 28.6042 51.0361ZM49.8813 39.815C49.3895 40.0665 49.488 40.7064 49.063 41.0036C50.3375 42.857 52.2974 40.3899 49.8813 39.815ZM37.9954 50.0313C38.2795 49.8376 38.5283 49.6687 38.7952 49.4871C38.7008 49.077 38.6326 48.7821 38.564 48.4845C38.302 48.3143 38.0487 48.1499 37.813 47.9977C37.2805 48.2759 36.7368 48.8336 37.0488 49.4636C37.4693 49.3968 37.7141 49.7256 37.9954 50.0313ZM29.6338 56.203C29.2974 56.5801 28.7062 56.7544 28.6683 57.3C28.7112 57.3903 28.7658 57.4684 28.8259 57.5416C29.3132 57.4219 29.9016 57.2336 30.575 56.9865C30.5664 56.9495 30.5624 56.9147 30.5502 56.8759C30.2182 56.6325 29.9265 56.4184 29.6338 56.203ZM24.3306 47.2232C23.9368 47.4427 23.5918 47.6355 23.3018 47.7972C23.8428 48.1544 24.2213 47.7394 24.3306 47.2232ZM37.8071 39.7897C35.6963 40.4585 38.1842 42.8394 38.8146 40.7638C38.4971 40.3867 38.2031 40.0525 37.8071 39.7897ZM28.7582 45.1973C29.1533 46.0002 30.1125 45.6561 30.6012 45.0916C30.5348 44.5763 30.2264 44.2561 29.8782 44.1315C29.492 44.3464 29.1149 44.5564 28.7491 44.7601C28.7302 44.8888 28.7288 45.0329 28.7582 45.1973ZM41.8901 49.9902C43.016 49.4505 43.0593 48.923 42.0319 48.1345C40.6766 48.2163 40.8442 49.5657 41.8901 49.9902ZM22.936 50.2445C22.885 50.4495 22.8362 50.6459 22.8046 50.8474C22.8832 51.1332 22.9721 51.4335 23.0692 51.742C24.915 52.0378 24.9317 49.7418 22.936 50.2445ZM32.4216 50.6066C31.9488 50.0241 31.2434 50.1157 30.874 50.7503C30.9805 51.285 31.1025 51.7682 31.5898 52.0206C31.8616 52.0017 32.0116 51.8951 32.283 51.7998C32.2306 51.3292 32.5838 50.9946 32.4216 50.6066ZM35.8674 47.7511C36.1411 47.4634 36.5281 47.4106 36.679 47.0687C36.31 44.7556 33.3763 47.4016 35.8674 47.7511ZM32.045 47.9151C32.9265 46.6677 32.1574 45.8309 30.8225 46.5264C30.58 47.4689 31.1824 47.841 32.045 47.9151ZM28.3016 46.4311C28.1219 46.315 27.9119 46.1804 27.7339 46.0657C24.8766 47.2462 28.8304 49.021 28.3016 46.4311ZM46.5457 44.0691C45.4985 43.8334 45.0947 44.593 45.4641 45.5102C46.5597 46.1935 47.2042 44.9823 46.5457 44.0691ZM32.9234 45.1801C33.4251 45.8932 34.3441 45.9158 34.6318 45.0067C34.4498 43.9106 32.3087 43.9707 32.9234 45.1801ZM37.9349 43.9576C37.3279 44.2006 37.3279 44.2006 36.9983 44.822C37.5695 46.898 39.6027 44.9439 37.9349 43.9576ZM33.8799 53.9215C34.3392 53.6839 34.4336 53.277 34.6788 52.9726C34.5126 52.703 34.3681 52.4682 34.2398 52.26C33.0412 52.3743 32.4785 52.5246 33.2332 53.7106C33.4531 53.7661 33.6604 53.8343 33.8799 53.9215ZM34.7894 55.1833C34.7908 55.1887 34.7939 55.1918 34.7953 55.1973C35.2185 55.0013 35.6529 54.7962 36.0982 54.5831C35.6646 54.1554 34.9606 54.3609 34.7894 55.1833ZM47.6319 35.3133C48.9027 35.5518 49.0255 34.6567 48.41 33.8551C48.0677 34.0434 47.7217 34.2344 47.3681 34.4295C47.3686 34.7375 47.4675 35.074 47.6319 35.3133ZM44.7294 46.6835C44.3482 46.4121 44.3482 46.4121 43.7254 46.2911C43.3393 46.5738 42.946 46.861 43.1284 47.5109C44.1111 48.0537 44.4805 47.8568 44.7294 46.6835ZM25.1349 49.7978C26.1068 49.6687 26.2382 49.563 26.4613 48.7451C26.217 48.1815 25.6344 48.382 25.1859 48.1607C24.7786 48.5292 24.7556 48.8919 25.1083 49.2785C25.2072 49.4451 24.8743 49.6379 25.1349 49.7978ZM43.5439 50.3668C43.1261 50.4396 43.0318 50.7173 43.1112 51.0032C43.4757 50.8076 43.841 50.6103 44.2073 50.4111C44.0072 50.3172 43.7769 50.2851 43.5439 50.3668ZM33.281 48.1693C33.113 48.6729 32.8181 49.096 33.1469 49.563C33.5123 49.5463 33.7936 49.6194 34.0687 49.8276C34.6034 49.3543 34.6002 49.3557 34.3347 48.8612C34.1892 48.3034 33.8912 48.0243 33.281 48.1693ZM43.1189 42.6439C43.2774 43.1393 43.2174 43.7047 43.8609 43.8126C45.6773 43.4188 44.1174 41.5171 43.1189 42.6439ZM51.4475 42.7382C51.1034 44.1825 53.4716 43.2039 52.9907 42.4592C52.456 42.0663 51.3436 41.5984 51.4475 42.7382ZM50.8717 32.9789C50.8383 32.8263 50.8098 32.685 50.7787 32.5517C50.4187 32.7495 50.0466 32.9541 49.6659 33.1632C49.9093 33.3127 50.3194 33.2743 50.8717 32.9789ZM22.3733 49.0481C22.4261 48.8842 22.395 48.751 22.2893 48.6159C22.3092 48.7252 22.3376 48.8729 22.3733 49.0481ZM39.9084 46.1271C39.884 45.9853 39.8131 45.9185 39.6876 45.9591C39.6235 45.9795 39.5277 46.0896 39.5413 46.1285C39.6397 46.7982 38.5595 46.8203 39.3105 47.5876C39.6379 47.5876 39.9716 47.5876 40.3135 47.5876C40.4982 47.3144 40.6707 47.0615 40.8555 46.7887C40.6319 46.1334 39.9233 46.838 39.9084 46.1271ZM50.0728 44.0895C49.5616 44.187 49.0418 44.8048 49.324 45.3364C50.0543 45.6249 50.5271 45.6123 50.8622 44.8175C50.7453 44.3568 50.4607 44.1653 50.0728 44.0895ZM52.5797 33.814C52.1882 33.8004 51.8377 33.7426 51.7406 34.1739C51.0578 34.453 51.3369 34.831 51.7501 35.3228C52.9378 35.5558 52.9012 34.7018 52.5797 33.814ZM46.7828 40.9354C46.5313 40.4102 46.5313 40.4102 46.0255 40.1595C45.2645 40.3063 44.7962 40.5457 45.4876 41.4001C45.7473 41.4778 46.039 41.5654 46.3674 41.6643C46.5214 41.3933 46.6582 41.1531 46.7828 40.9354ZM36.1063 51.7632C36.0752 51.6598 36.0435 51.5555 35.9912 51.3798C38.116 50.4079 34.845 50.0796 34.9177 51.411C35.0206 51.7962 35.8385 52.1191 36.1063 51.7632ZM37.1848 52.4908C36.9599 53.0061 37.3166 53.3953 37.323 53.9011C37.3699 53.9138 37.4097 53.916 37.4535 53.9242C37.7646 53.7711 38.079 53.6144 38.3973 53.455C38.5504 52.8904 38.0803 52.0992 37.1848 52.4908ZM46.5593 36.1885C45.6642 36.0436 44.8382 36.53 45.4646 37.4571C45.7577 37.4842 46.0594 37.5113 46.3651 37.5398C46.5304 37.3112 46.6763 37.1103 46.8194 36.9129C46.7368 36.6844 46.6627 36.4753 46.5593 36.1885ZM40.6942 38.5414C40.626 38.4204 40.5511 38.3256 40.4738 38.2438C40.0263 38.4922 39.5783 38.7406 39.1303 38.989C39.1529 39.1204 39.1985 39.2586 39.2744 39.4004C39.8646 39.4325 40.36 39.1168 40.6942 38.5414ZM44.1201 37.7516C43.939 37.692 43.6803 37.8157 43.6234 38.0921C43.5651 38.5703 43.141 38.4778 42.9482 38.793C43.2386 38.8801 43.4012 39.0784 43.5778 39.2979C44.4498 39.9491 45.0378 38.004 44.1201 37.7516ZM42.4623 45.4691C42.498 45.1516 42.5309 44.8531 42.5684 44.523C40.5321 43.5864 40.6631 46.2843 42.4623 45.4691ZM36.585 42.9848C36.2251 42.5779 35.6782 42.6046 35.377 42.2062C35.0979 42.3453 34.9019 42.5702 34.7086 42.8525C35.3065 43.6975 36.0964 44.0746 36.585 42.9848ZM40.2137 51.5234C40.6631 51.0637 40.3582 50.7051 40.2345 50.3506C38.6105 49.9685 38.526 51.938 40.2137 51.5234ZM50.7629 37.0136C51.2655 36.2567 50.3406 35.8873 49.6853 36.0327C48.8788 36.973 50.0118 37.5885 50.7629 37.0136ZM47.6111 38.2754C47.2453 38.6489 47.3758 39.3747 47.9543 39.4121C49.534 39.1759 48.6805 37.5926 47.6111 38.2754ZM47.6079 43.4852C50.4562 43.0047 47.4584 40.9932 47.2882 43.1984C47.388 43.2879 47.5095 43.3967 47.6079 43.4852ZM40.8938 40.7904C41.3211 41.4588 41.2488 41.2809 42.2609 41.1725C43.2273 40.0132 41.2461 39.8976 40.8938 40.7904ZM49.0224 47.0967C48.5852 46.3593 47.9697 46.0481 47.3744 46.884C47.5754 47.8618 48.5604 47.7163 49.0224 47.0967ZM45.881 48.3265C45.503 48.4141 45.2537 48.6087 45.1665 49.0269C45.3449 49.3214 45.5915 49.4677 45.8363 49.516C46.1352 49.3503 46.4342 49.1832 46.7327 49.0156C46.7246 48.7862 46.492 48.5243 45.881 48.3265ZM40.5082 42.857C39.9843 42.2108 39.8425 42.1471 39.2224 42.2632C39.1538 42.4659 39.0833 42.6759 38.9939 42.9406C39.3665 43.2079 39.7097 43.5019 40.1126 43.4441C40.2399 43.2544 40.3776 43.0503 40.5082 42.857Z" fill="#421B36"/>
</g>
<path d="M27.4567 51.8073C26.6695 51.8073 21.0366 43.7343 23.6596 41.1109C26.283 38.4875 54.4607 24.6615 56.4966 26.7732C58.667 29.0245 60.7711 36.8549 60.7711 36.8549L27.4567 51.8073Z" fill="#8B2D6C"/>
<path d="M41.8912 118.465C41.8912 118.465 48.2187 136.904 52.6815 135.739C57.1443 134.575 70.8069 128.832 70.7879 126.741C70.7527 122.816 64.2454 109.153 61.5362 108.118C57.3512 106.52 40.8105 115.761 41.8912 118.465Z" fill="white"/>
<path d="M52.2751 136.112C50.3458 136.112 48.011 133.281 45.3262 127.679C43.2416 123.329 41.6645 118.785 41.5927 118.578C41.3507 117.958 41.7187 117.163 42.7182 116.149C46.3965 112.413 58.142 106.483 61.6492 107.825C63.5974 108.568 66.5821 114.431 67.4506 116.21C69.2566 119.909 71.0865 124.6 71.1059 126.741C71.1289 129.281 56.4823 135.079 52.7615 136.05C52.6025 136.091 52.4404 136.112 52.2751 136.112ZM60.3102 108.247C56.0894 108.247 46.3374 113.379 43.1716 116.594C42.0891 117.694 42.122 118.188 42.1866 118.349L42.192 118.364C43.9253 123.416 49.1843 136.315 52.6007 135.435C57.9329 134.044 70.4845 128.386 70.4696 126.747C70.4335 122.702 63.8382 109.341 61.422 108.418C61.119 108.302 60.7433 108.247 60.3102 108.247Z" fill="#8B2D6C"/>
<path d="M15.3996 64.6542C15.3996 64.6542 21.7271 83.093 26.1899 81.9287C30.6527 80.7645 44.3153 75.0214 44.2963 72.93C44.2611 69.0059 37.7538 55.3425 35.0446 54.3074C30.86 52.7096 14.3193 61.9504 15.3996 64.6542Z" fill="white"/>
<path d="M25.784 82.2999C23.8543 82.2999 21.5199 79.4683 18.8351 73.8665C16.7504 69.5171 15.1734 64.9725 15.1016 64.7652C14.8595 64.1452 15.2281 63.3499 16.2275 62.3351C19.9063 58.5994 31.65 52.6729 35.1581 54.0115C37.1063 54.7557 40.091 60.6176 40.9594 62.397C42.765 66.0961 44.5958 70.787 44.6148 72.9281C44.6374 75.4679 29.9912 81.2666 26.2704 82.2371C26.1114 82.2787 25.9493 82.2999 25.784 82.2999ZM33.8181 54.4351C29.5978 54.4351 19.8467 59.5658 16.6804 62.7808C15.5975 63.881 15.6304 64.375 15.695 64.5367L15.7004 64.5516C17.3764 69.4344 22.3382 81.6649 25.7623 81.6663C25.8802 81.6663 25.9958 81.6514 26.1096 81.622C31.4409 80.2311 43.9929 74.5737 43.9785 72.9339C43.9423 68.8889 37.3466 55.528 34.9309 54.6054C34.6279 54.4893 34.2517 54.4351 33.8181 54.4351Z" fill="#8B2D6C"/>
<path d="M32.4539 58.3887C32.1681 59.151 30.8313 72.8641 30.8313 72.8641C30.8313 72.8641 23.0053 69.4364 22.8112 69.3068C22.8112 69.3068 21.4103 71.4203 21.6582 72.1641C21.9061 72.9084 31.1456 77.373 32.7579 76.0706C34.3701 74.7686 35.7963 58.6339 35.7963 58.6339L32.4539 58.3887Z" fill="#8B2D6C"/>
<path d="M59.534 110.824C59.2481 111.587 57.9114 125.3 57.9114 125.3C57.9114 125.3 50.0854 121.872 49.8912 121.742C49.8912 121.742 48.4903 123.856 48.7383 124.6C48.9862 125.344 58.2257 129.809 59.838 128.506C61.4502 127.204 62.8764 111.069 62.8764 111.069L59.534 110.824Z" fill="#8B2D6C"/>
<path d="M44.3641 55.1945C54.3307 50.4056 64.3059 45.6317 74.1812 40.6567C74.6383 40.4264 74.2363 39.7404 73.7802 39.9703C63.9048 44.9452 53.9297 49.7196 43.9631 54.5081C43.502 54.7298 43.9048 55.4153 44.3641 55.1945Z" fill="#421B36"/>
<path d="M46.6051 60.4029C56.9366 56.2336 66.9781 51.3752 76.8724 46.2638C77.3272 46.029 76.9257 45.343 76.4714 45.5774C66.6385 50.6567 56.6611 55.4929 46.3942 59.636C45.9254 59.8252 46.13 60.5943 46.6051 60.4029Z" fill="#421B36"/>
<path d="M50.0775 65.3984C58.8252 61.287 67.5729 57.1755 76.3206 53.0641C76.783 52.8468 76.3802 52.1613 75.9196 52.3776C67.1719 56.4891 58.4242 60.6005 49.6765 64.712C49.214 64.9297 49.6169 65.6152 50.0775 65.3984Z" fill="#421B36"/>
<path d="M30.1104 40.4332C30.1104 40.4332 24.9548 36.9793 26.2121 33.7096C27.4693 30.44 47.3379 22.1444 48.8468 24.2805C50.3556 26.4161 52.242 32.8814 52.242 32.8814L30.739 40.4332" fill="#8B2D6C"/>
<path d="M25.6453 34.0711C26.5431 37.5092 29.0509 40.3873 31.472 42.8798C31.5646 42.975 31.7294 43.0283 31.8586 42.9818C38.224 40.6926 44.5899 38.4034 50.9554 36.1142C51.8487 35.7931 52.7419 35.4715 53.6352 35.1504C53.829 35.0809 53.9848 34.8781 53.913 34.6614C52.6855 30.9663 51.0669 27.4193 49.0758 24.0734C48.8143 23.6339 48.1269 24.0336 48.3893 24.4744C50.3466 27.7626 51.9399 31.2409 53.1466 34.8723C53.2392 34.7092 53.3317 34.5462 53.4243 34.3836C47.0589 36.6728 40.693 38.962 34.3275 41.2513C33.4343 41.5723 32.541 41.8939 31.6477 42.215C31.7764 42.2489 31.9056 42.2832 32.0343 42.3171C29.7076 39.9213 27.2756 37.1651 26.4122 33.8588C26.283 33.3652 25.5162 33.5748 25.6453 34.0711Z" fill="#421B36"/>
<path d="M27.3236 52.2701C38.4093 47.147 49.4954 42.0239 60.5811 36.9009C61.0449 36.6864 60.6416 36.0013 60.18 36.2144C49.0939 41.3375 38.0082 46.4606 26.9226 51.5836C26.4583 51.7982 26.8616 52.4837 27.3236 52.2701Z" fill="#421B36"/>
<path d="M33.706 35.6862C33.7137 35.6605 33.7155 35.6338 33.7187 35.6076C33.7218 35.5832 33.7273 35.5565 33.7273 35.5308C33.7268 35.4788 33.72 35.4259 33.706 35.3758C33.6925 35.3274 33.6717 35.2804 33.6477 35.2366C33.6432 35.2289 33.6387 35.2212 33.6337 35.2144C33.6093 35.1805 33.584 35.1462 33.5564 35.115C33.523 35.0775 33.4773 35.0467 33.4385 35.0187C33.3991 34.9903 33.3427 34.9713 33.3015 34.955C33.2934 34.9518 33.2853 34.9487 33.2771 34.9464C33.236 34.9356 33.1922 34.9329 33.1501 34.9279C33.0977 34.922 33.0421 34.9347 32.9919 34.9433C32.9246 34.9622 32.8659 34.9961 32.8166 35.0454C32.7673 35.0951 32.733 35.1534 32.7145 35.2207C32.6928 35.3242 32.6932 35.3771 32.7136 35.4797C32.723 35.5276 32.7438 35.5755 32.7719 35.6157C32.7917 35.6447 32.8193 35.6849 32.8482 35.7125C32.8514 35.7152 32.8546 35.7179 32.8577 35.7206C32.8862 35.7441 32.9165 35.7685 32.9472 35.7893C32.9888 35.8178 33.0394 35.8349 33.0864 35.8512C33.1348 35.8679 33.1967 35.872 33.2428 35.877C33.2609 35.8788 33.2794 35.8792 33.2975 35.8774C33.3454 35.8724 33.4037 35.8693 33.452 35.8521C33.5515 35.8169 33.5876 35.7947 33.6676 35.7278C33.706 35.6957 33.7386 35.6533 33.7607 35.6085C33.7738 35.5823 33.8005 35.5294 33.8086 35.4897C33.8091 35.4869 33.8095 35.4847 33.81 35.482C33.8154 35.4472 33.8226 35.406 33.8249 35.3708C33.8253 35.3649 33.8253 35.3595 33.8249 35.3536C33.8204 35.3889 33.8154 35.4241 33.8109 35.4594C33.8253 35.4146 33.8326 35.3654 33.8289 35.3184C33.8213 35.2194 33.8109 35.1765 33.7652 35.0879C33.7259 35.0115 33.6468 34.9378 33.5731 34.8958C33.5334 34.8732 33.49 34.8542 33.4457 34.8425C33.4425 34.8416 33.4389 34.8411 33.4358 34.8402C33.4014 34.8334 33.3598 34.8289 33.325 34.8253C33.3182 34.8244 33.3115 34.8239 33.3047 34.8244C33.2098 34.8294 33.1587 34.8443 33.0751 34.885C33.0688 34.8881 33.0634 34.8908 33.0579 34.8949C33.0299 34.9143 32.9974 34.9387 32.9721 34.9613C32.9694 34.9636 32.9671 34.9663 32.9648 34.969C32.926 35.0052 32.8988 35.0477 32.8826 35.0969C32.8577 35.1444 32.8464 35.1954 32.8482 35.2501C32.846 35.3048 32.8577 35.3559 32.8826 35.4033C32.8988 35.4526 32.926 35.4955 32.9648 35.5312C32.9915 35.552 33.0186 35.5728 33.0453 35.5936C33.1072 35.6298 33.1741 35.6478 33.2459 35.6478C33.2812 35.6433 33.3164 35.6383 33.3517 35.6338C33.419 35.6148 33.4778 35.5809 33.527 35.5317C33.5311 35.5272 33.5352 35.5235 33.5397 35.5195C33.513 35.5403 33.4859 35.5611 33.4593 35.5818C33.4647 35.5778 33.4706 35.5746 33.4764 35.5719C33.4448 35.5855 33.4132 35.5986 33.3815 35.6121C33.3888 35.6094 33.396 35.6076 33.4037 35.6063C33.3684 35.6108 33.3332 35.6157 33.2979 35.6203C33.307 35.6194 33.3155 35.6194 33.3246 35.6207C33.2893 35.6162 33.2541 35.6112 33.2188 35.6067C33.2306 35.6085 33.2414 35.6117 33.2523 35.6162C33.2206 35.6026 33.189 35.5895 33.1574 35.576C33.1682 35.5809 33.1781 35.5868 33.1876 35.594C33.161 35.5733 33.1339 35.5525 33.1072 35.5317C33.1153 35.538 33.123 35.5452 33.1293 35.5534C33.1085 35.5267 33.0878 35.4996 33.067 35.4729C33.0724 35.4802 33.0769 35.4878 33.081 35.496C33.0674 35.4643 33.0543 35.4327 33.0408 35.4011C33.0439 35.4083 33.0457 35.4155 33.0471 35.4232C33.0426 35.388 33.0376 35.3527 33.0331 35.3175C33.034 35.3242 33.034 35.3306 33.0331 35.3373C33.0376 35.3021 33.0426 35.2668 33.0471 35.2316C33.0412 35.2736 33.0295 35.3111 33.029 35.3572C33.029 35.3636 33.029 35.3703 33.0281 35.3767C33.0326 35.3414 33.0376 35.3062 33.0421 35.2709C33.0408 35.2813 33.038 35.2908 33.0344 35.3003C33.048 35.2687 33.0611 35.237 33.0747 35.2054C33.071 35.2135 33.0665 35.2207 33.0611 35.228C33.0819 35.2013 33.1027 35.1742 33.1235 35.1475C33.1176 35.1552 33.1108 35.1615 33.1031 35.1674C33.1298 35.1466 33.1569 35.1258 33.1836 35.105C33.1736 35.1123 33.1628 35.1186 33.1515 35.1231C33.1831 35.1096 33.2148 35.0965 33.2464 35.0829C33.231 35.0892 33.2148 35.0933 33.1985 35.0956C33.2337 35.091 33.269 35.0861 33.3042 35.0816C33.2825 35.0843 33.2604 35.0843 33.2387 35.0816C33.274 35.0861 33.3092 35.091 33.3445 35.0956C33.3237 35.0928 33.3038 35.0874 33.2844 35.0793C33.316 35.0924 33.3476 35.106 33.3793 35.1195C33.3657 35.1136 33.353 35.1064 33.3418 35.0978C33.3684 35.1186 33.3955 35.1394 33.4222 35.1602C33.4132 35.153 33.405 35.1453 33.3982 35.1362C33.419 35.1629 33.4398 35.19 33.4606 35.2167C33.4552 35.2094 33.4511 35.2022 33.4475 35.1941C33.4606 35.2257 33.4742 35.2574 33.4877 35.289C33.4841 35.28 33.4814 35.2705 33.48 35.261C33.485 35.2962 33.4895 35.3315 33.4945 35.3667C33.4936 35.3572 33.4936 35.3473 33.495 35.3378C33.4904 35.373 33.4855 35.4083 33.4809 35.4436C33.4814 35.4399 33.4823 35.4359 33.4828 35.4323C33.3901 35.5249 33.2975 35.6175 33.2048 35.7102C33.208 35.7097 33.2107 35.7093 33.2138 35.7088C33.1786 35.7134 33.1433 35.7183 33.1081 35.7229C33.1226 35.721 33.137 35.7215 33.1515 35.7233C33.1162 35.7188 33.081 35.7138 33.0457 35.7093C33.0615 35.7116 33.0769 35.7161 33.0914 35.7219C33.0597 35.7084 33.0281 35.6953 32.9965 35.6817C33.0141 35.6894 33.0304 35.6989 33.0453 35.7107C33.0186 35.6899 32.9915 35.6691 32.9648 35.6483C32.9802 35.6605 32.9933 35.674 33.0055 35.689C32.9847 35.6623 32.9639 35.6352 32.9431 35.6085C32.9549 35.6239 32.9644 35.6401 32.9721 35.6578C32.9585 35.6261 32.9454 35.5945 32.9318 35.5629C32.9386 35.5791 32.9436 35.5959 32.9459 35.613C32.9413 35.5778 32.9364 35.5425 32.9318 35.5073C32.9341 35.5231 32.9341 35.5389 32.9323 35.5547C32.9368 35.5195 32.9418 35.4842 32.9463 35.449C32.9449 35.4576 32.9431 35.4662 32.9404 35.4747C32.9237 35.5276 32.9214 35.5805 32.9332 35.6334C32.9355 35.6862 32.9513 35.7355 32.9802 35.7812C33.0051 35.8277 33.0394 35.8648 33.0828 35.8928C33.1212 35.928 33.1664 35.9515 33.2179 35.9642C33.2532 35.9687 33.2884 35.9737 33.3237 35.9782C33.3955 35.9782 33.4624 35.9601 33.5243 35.924C33.551 35.9032 33.5781 35.8824 33.6048 35.8616C33.6531 35.8119 33.687 35.7536 33.706 35.6862Z" fill="#421B36"/>
<path d="M44.7793 29.6153C44.7685 29.6108 44.7576 29.6072 44.7464 29.6045C44.7414 29.6031 44.736 29.6027 44.731 29.6018C44.6922 29.5954 44.652 29.5887 44.6122 29.5864C44.6014 29.5855 44.5906 29.586 44.5802 29.5873C44.5364 29.5914 44.4903 29.5954 44.4474 29.6067C44.4212 29.6135 44.3959 29.6262 44.3715 29.6365C44.3467 29.6469 44.3205 29.6564 44.297 29.67C44.2875 29.6754 44.2785 29.6817 44.2695 29.6885C44.2347 29.7142 44.1986 29.74 44.1665 29.7698C44.1263 29.8072 44.0938 29.8542 44.0622 29.8985C44.0486 29.9174 44.0373 29.9378 44.0279 29.9585C44.0057 30.0078 43.9795 30.0601 43.9678 30.1139C43.9583 30.1577 43.9533 30.2038 43.9488 30.248C43.9479 30.2589 43.947 30.2697 43.947 30.281C43.9479 30.3361 43.9542 30.393 43.9705 30.4458C43.9836 30.4869 44.0021 30.5276 44.0206 30.5664C44.0256 30.5763 44.031 30.5854 44.0373 30.5944C44.0622 30.6292 44.0879 30.6667 44.1186 30.6969C44.1222 30.701 44.1268 30.7046 44.1308 30.7082C44.1557 30.7299 44.232 30.7823 44.2148 30.7732C44.2464 30.7868 44.278 30.7999 44.3097 30.8134C44.3449 30.8184 44.3801 30.8229 44.4153 30.8279C44.446 30.8283 44.4962 30.818 44.5264 30.813C44.53 30.8125 44.5341 30.8121 44.5377 30.8112C44.544 30.8098 44.5504 30.808 44.5567 30.8062C44.5933 30.7945 44.6294 30.7769 44.6646 30.7615C44.6714 30.7583 44.6782 30.7556 44.6849 30.752C44.7369 30.7236 44.7875 30.6856 44.8254 30.64C44.8547 30.6052 44.8855 30.5691 44.9089 30.5294C44.9324 30.4896 44.9491 30.444 44.9649 30.4016C44.9862 30.3447 44.9943 30.2796 44.9934 30.2191C44.9934 30.2114 44.9925 30.2042 44.9916 30.197C44.9871 30.1577 44.9835 30.1166 44.9749 30.0773C44.9735 30.071 44.9717 30.0647 44.9695 30.0583C44.9564 30.0218 44.9401 29.9834 44.9234 29.9486C44.9098 29.9201 44.8895 29.8971 44.8701 29.8723C44.8502 29.8465 44.8335 29.8221 44.8091 29.8014C44.7274 29.7314 44.6664 29.6952 44.5635 29.66C44.5499 29.6555 44.5359 29.6523 44.5215 29.6501C44.4826 29.6438 44.4221 29.6316 44.3756 29.6343C44.3345 29.6365 44.292 29.6433 44.2514 29.6505C44.2442 29.6519 44.2374 29.6532 44.2306 29.6551C44.1837 29.6677 44.1385 29.6885 44.096 29.7115C44.0495 29.7363 44.0125 29.7707 43.9845 29.814C43.9493 29.8524 43.9258 29.8976 43.9131 29.9491C43.8964 30.0019 43.8942 30.0547 43.9059 30.1076C43.9082 30.1604 43.924 30.2096 43.9529 30.2552C44.0075 30.3401 44.0893 30.4147 44.1904 30.4377C44.2256 30.4422 44.2609 30.4472 44.2961 30.4521C44.3679 30.4517 44.4347 30.4336 44.4966 30.3979C44.5029 30.3943 44.5093 30.3916 44.516 30.3885C44.4844 30.402 44.4528 30.4151 44.4212 30.4287C44.4361 30.4228 44.4515 30.4192 44.4677 30.4169C44.4325 30.4219 44.3973 30.4264 44.362 30.4309C44.3801 30.4291 44.3977 30.4291 44.4153 30.4314C44.3801 30.4269 44.3449 30.4219 44.3097 30.4174C44.3295 30.4205 44.3485 30.4255 44.3666 30.4332C44.3349 30.4196 44.3033 30.4065 44.2717 30.393C44.2898 30.4011 44.3069 30.411 44.3228 30.4232C44.2961 30.4025 44.269 30.3817 44.2424 30.3609C44.255 30.3709 44.2663 30.3821 44.2762 30.3948C44.2555 30.3681 44.2347 30.341 44.2139 30.3144C44.2238 30.327 44.232 30.341 44.2383 30.3555C44.2252 30.3239 44.2117 30.2923 44.1981 30.2607C44.2035 30.2747 44.2076 30.2887 44.2098 30.3036C44.2053 30.2683 44.2004 30.2331 44.1958 30.1979C44.1981 30.2146 44.1981 30.2313 44.1958 30.248C44.2004 30.2128 44.2053 30.1776 44.2098 30.1423C44.2071 30.1609 44.2022 30.1789 44.1949 30.1965C44.208 30.1649 44.2216 30.1333 44.2351 30.1017C44.2275 30.1193 44.218 30.1351 44.2071 30.1505C44.2279 30.1238 44.2487 30.0967 44.2695 30.0701C44.2577 30.085 44.2446 30.0985 44.2302 30.1103C44.2568 30.0895 44.2839 30.0687 44.3106 30.048C44.2957 30.0592 44.2798 30.0687 44.2622 30.076C44.2938 30.0624 44.3255 30.0493 44.3571 30.0358C44.3431 30.0412 44.3286 30.0452 44.3137 30.0471C44.3489 30.0425 44.3842 30.0376 44.4194 30.033C44.4176 30.0335 44.4158 30.0335 44.414 30.0335C44.5075 30.0723 44.6014 30.1112 44.6949 30.15C44.6831 30.1401 44.6723 30.1292 44.6628 30.1175C44.6836 30.1442 44.7044 30.1712 44.7251 30.1979C44.7156 30.1852 44.708 30.1712 44.7016 30.1568C44.7152 30.1884 44.7283 30.22 44.7418 30.2516C44.7355 30.2358 44.7315 30.2191 44.7287 30.2024C44.7333 30.2376 44.7382 30.2729 44.7427 30.3081C44.74 30.2864 44.7405 30.2647 44.7432 30.2426C44.7387 30.2778 44.7337 30.313 44.7292 30.3483C44.7333 30.3212 44.7405 30.295 44.7513 30.2697C44.7378 30.3013 44.7247 30.3329 44.7111 30.3645C44.7229 30.3374 44.7378 30.3126 44.7558 30.2891C44.7351 30.3158 44.7143 30.3429 44.6935 30.3695C44.7098 30.3492 44.7274 30.3307 44.7477 30.3149C44.7211 30.3356 44.694 30.3564 44.6673 30.3772C44.6849 30.3636 44.7035 30.3523 44.7238 30.3438C44.6922 30.3573 44.6606 30.3704 44.6289 30.384C44.6461 30.3767 44.6642 30.3722 44.6827 30.3695C44.6475 30.374 44.6122 30.379 44.577 30.3835C44.5928 30.3817 44.6086 30.3817 44.6244 30.384C44.5892 30.3794 44.554 30.3745 44.5187 30.3695C44.5355 30.3722 44.5513 30.3767 44.5671 30.3831C44.6199 30.3998 44.6727 30.402 44.7256 30.3903C44.7784 30.388 44.8276 30.3722 44.8733 30.3433C44.9198 30.3185 44.9568 30.2841 44.9848 30.2408C45.02 30.2024 45.0435 30.1572 45.0562 30.1058C45.0607 30.0705 45.0657 30.0353 45.0702 30.0001C45.0697 29.9283 45.0516 29.8614 45.016 29.7996C44.9952 29.7729 44.9744 29.7458 44.9536 29.7192C44.9049 29.6682 44.8466 29.6338 44.7793 29.6153Z" fill="#421B36"/>
<path d="M3.47056 71.3946C3.47056 71.3946 0.832248 69.0837 0.850312 66.9562C0.873796 64.1996 4.43293 57.7221 7.17963 57.2773C9.92632 56.8325 10.9438 60.131 10.0677 61.3585C9.19155 62.5855 6.48008 65.1529 5.96434 66.557C5.49693 67.8292 6.2606 68.3282 6.2606 68.3282C6.2606 68.3282 11.3349 62.679 14.1584 63.645C16.9823 64.611 15.7697 67.0813 15.7697 67.0813C15.7697 67.0813 20.0984 68.1859 17.4461 72.5169C17.4461 72.5169 18.7309 74.4511 17.8376 76.4459C16.9443 78.4406 13.5415 81.5644 13.5415 81.5644C13.5415 81.5644 14.8466 85.5232 14.3178 85.9464C12.552 87.3595 6.08809 83.692 6.64582 80.9493C6.64582 80.9493 4.40132 78.7139 4.63797 76.5782L4.87732 75.563C4.87732 75.563 2.4043 73.4576 3.47056 71.3946Z" fill="#FFBFBF"/>
<path d="M17.6551 72.4605C16.821 71.6412 15.6694 71.9741 14.7883 72.5287C13.6665 73.235 12.6043 74.0592 11.5986 74.9204C9.59251 76.6383 7.89039 78.6462 6.36395 80.7945C6.12414 81.1318 6.69137 81.438 6.92891 81.1034C8.22684 79.2775 9.66296 77.5528 11.3127 76.0327C12.1513 75.26 13.0387 74.5433 13.9632 73.8763C14.7756 73.2905 16.2434 71.9759 17.213 72.9283C17.5083 73.2187 17.9509 72.7513 17.6551 72.4605Z" fill="#421B36"/>
<path d="M4.9536 75.8088C6.52926 74.0497 8.17719 72.3571 9.90053 70.7421C10.7469 69.9487 11.6085 69.1696 12.4919 68.4173C13.2515 67.7701 14.3317 66.8551 15.3953 67.3059C15.7737 67.4662 16.0862 66.9026 15.7042 66.7409C14.8271 66.3692 13.9704 66.6063 13.1833 67.0882C12.1319 67.7317 11.2219 68.6602 10.3142 69.4858C8.27067 71.3441 6.32829 73.3095 4.48527 75.3671C4.20934 75.6746 4.67585 76.1186 4.9536 75.8088Z" fill="#421B36"/>
<path d="M3.82142 71.6837C4.6158 69.9902 5.84914 68.5333 7.39862 67.4833C7.74049 67.2516 7.40449 66.702 7.05991 66.9355C5.42192 68.0451 4.09735 69.5824 3.2569 71.3744C3.08123 71.7483 3.64484 72.0599 3.82142 71.6837Z" fill="#421B36"/>
<path d="M4.71295 59.186C5.12934 59.8973 5.98198 60.3426 6.80616 60.2333C7.65564 60.1209 8.36603 59.4994 8.60131 58.6771C8.71557 58.2774 8.09009 58.1234 7.97628 58.5213C7.81912 59.0713 7.3219 59.5211 6.74926 59.5956C6.15494 59.6729 5.56017 59.359 5.26075 58.8478C5.05166 58.4901 4.50295 58.8279 4.71295 59.186Z" fill="#421B36"/>
<path d="M11.9478 75.1418C12.8375 75.9741 14.1313 76.3183 15.3137 76.0021C16.4978 75.6856 17.4335 74.7236 17.7862 73.5621C17.9068 73.1642 17.2813 73.0111 17.1612 73.4063C16.8735 74.3551 16.0936 75.1265 15.1326 75.3843C14.1693 75.6427 13.1125 75.3496 12.3899 74.674C12.0874 74.3908 11.6439 74.8578 11.9478 75.1418Z" fill="#421B36"/>
<path d="M10.5828 69.6027C11.4074 70.5389 12.834 70.6423 13.9256 70.1545C15.2262 69.5733 15.984 68.2519 16.441 66.9648C16.5801 66.5737 15.9538 66.422 15.816 66.809C15.433 67.8874 14.7994 69.0142 13.7318 69.5385C12.8526 69.9703 11.6951 69.8953 11.0249 69.1343C10.7512 68.8241 10.3104 69.2933 10.5828 69.6027Z" fill="#421B36"/>
<path d="M9.772 65.9453C10.5226 66.4899 11.5012 66.6787 12.4031 66.4687C13.3275 66.2533 14.1251 65.5962 14.5451 64.7503C14.7293 64.3796 14.1648 64.0693 13.9801 64.4414C13.6301 65.1464 12.9929 65.6716 12.222 65.8509C11.4759 66.0248 10.6937 65.8252 10.0809 65.3808C9.9391 65.2778 9.72143 65.3708 9.64375 65.5086C9.55027 65.6757 9.63201 65.8441 9.772 65.9453Z" fill="#421B36"/>
<path d="M82.5183 68.7838L55.0911 94.4122L54.7153 94.7613L54.6756 94.8006C54.6756 94.8006 52.6926 95.6437 50.7294 96.3686C49.1745 96.9353 47.6395 97.4294 47.1193 97.3698C46.5064 97.3038 47.1125 95.4789 47.8902 93.667C48.615 91.9934 49.478 90.3269 49.6623 90.0501C49.6754 90.0239 49.7083 89.9909 49.7544 89.9449C49.8203 89.8658 49.9323 89.734 50.0972 89.5691C53.1939 86.3541 71.6607 68.9084 77.5506 63.4927C79.2305 61.9509 81.9384 62.2675 83.1306 64.2044C83.1505 64.2306 83.1636 64.2573 83.1767 64.2835C84.047 65.7399 83.7503 67.6109 82.5183 68.7838Z" fill="#8B2D6C"/>
<path d="M51.9778 90.8797C58.9687 83.9949 66.3526 77.5252 73.4505 70.7528C75.3125 68.9766 77.1533 67.1783 78.9516 65.3375C79.3093 64.9713 78.7479 64.409 78.3893 64.7753C71.6274 71.6958 64.3411 78.0834 57.2842 84.6958C55.3075 86.5483 53.3458 88.4162 51.4156 90.317C51.0507 90.6774 51.6129 91.2392 51.9778 90.8797Z" fill="white"/>
<path d="M54.6963 92.4349C63.3166 83.9464 72.6112 76.1606 81.0689 67.5055C81.4266 67.1393 80.8653 66.577 80.5067 66.9433C72.0489 75.5984 62.7543 83.3841 54.134 91.8726C53.7696 92.2325 54.3314 92.7943 54.6963 92.4349Z" fill="white"/>
<path d="M55.0883 94.4164L54.7131 94.7655C54.7131 94.7655 48.3291 97.4733 47.1563 97.3351C45.9834 97.2033 49.3104 90.5885 49.6993 90.0154C49.7453 89.9495 49.8772 89.7982 50.0944 89.5742C51.7744 89.9432 54.0605 91.0826 55.0883 94.4164Z" fill="#F7C569"/>
<path d="M50.7303 96.3715C49.1754 96.9382 47.6404 97.4323 47.1201 97.3727C46.5073 97.3067 47.1133 95.4818 47.891 93.6699C47.8978 93.6699 47.9041 93.6699 47.9109 93.6762C48.6027 93.795 50.3026 94.355 50.724 96.3444C50.7303 96.3516 50.7303 96.3647 50.7303 96.3715Z" fill="#8B2D6C"/>
<path d="M50.3318 89.9556C52.1766 90.7247 53.6733 92.3081 54.3543 94.184C54.4275 94.3859 54.6244 94.5218 54.8434 94.4618C55.038 94.4085 55.1947 94.1755 55.1211 93.9727C54.3353 91.8077 52.6666 90.0744 50.5436 89.1892C50.3454 89.1066 50.1065 89.2787 50.0545 89.467C49.9913 89.6959 50.1331 89.873 50.3318 89.9556Z" fill="#421B36"/>
<path d="M77.3367 64.5509C79.1816 65.32 80.6782 66.9033 81.3592 68.7793C81.4324 68.9812 81.6293 69.1171 81.8483 69.0571C82.0429 69.0038 82.1997 68.7707 82.126 68.5684C81.3398 66.4034 79.6715 64.6701 77.5485 63.785C77.3503 63.7023 77.1114 63.8739 77.0594 64.0627C76.9962 64.2912 77.1376 64.4683 77.3367 64.5509Z" fill="#421B36"/>
<path d="M57.8979 83.1737C56.0273 84.5809 53.2608 83.3837 53.179 81.0439C53.1781 81.0195 53.1777 80.9956 53.1772 80.9707C53.1519 79.3296 55.5296 76.2695 61.9023 73.1457C66.2224 71.0281 74.4769 76.2288 74.4769 76.2288L104.162 100.029L92.4664 109.219L85.8666 99.6949C83.3542 100.576 80.575 99.6394 79.0739 97.4409C78.7528 96.9708 78.4913 96.6551 78.3739 96.6651C77.9263 96.7021 73.2463 100.017 70.3601 95.0763C70.3601 95.0763 64.8992 94.402 65.274 90.7679C65.274 90.7679 61.3974 90.1881 62.6854 86.7035C63.9734 83.2188 68.8959 80.109 68.8959 80.109C68.8959 80.109 64.7127 78.6535 63.0765 79.2392C61.8662 79.6719 59.9983 81.5935 57.8979 83.1737Z" fill="#FFBFBF"/>
<path d="M71.2749 94.7575C71.9126 92.2492 73.6066 90.095 75.8908 88.8793C76.3424 88.6386 75.9414 87.9526 75.4898 88.1928C73.0335 89.5007 71.1941 91.8495 70.5085 94.5461C70.3821 95.0424 71.1485 95.2538 71.2749 94.7575Z" fill="#421B36"/>
<path d="M78.0193 96.7032C79.0341 96.3993 79.7806 95.4843 79.8732 94.4293C79.9644 93.3897 79.3087 92.3212 78.3571 91.9071C78.1607 91.8213 77.9308 91.8493 77.8134 92.0498C77.715 92.2178 77.7583 92.5073 77.9561 92.5935C78.6566 92.8988 79.128 93.5984 79.0824 94.3715C79.0404 95.0891 78.485 95.734 77.8075 95.9368C77.3193 96.0831 77.5275 96.8504 78.0193 96.7032Z" fill="#421B36"/>
<path d="M65.78 91.1C66.886 88.1374 69.1955 85.7123 72.0705 84.4112C72.5356 84.2008 72.1324 83.5157 71.6695 83.7248C68.6008 85.1135 66.1896 87.7391 65.0136 90.8887C64.8343 91.3687 65.6021 91.5756 65.78 91.1Z" fill="#421B36"/>
<path d="M55.1218 83.5316C56.0106 82.9066 56.5868 81.9473 56.6961 80.863C56.805 79.781 56.3592 78.6723 55.5802 77.9253C55.2108 77.5712 54.6481 78.1321 55.0179 78.4871C56.2856 79.7028 56.1768 81.8213 54.7208 82.8451C54.3053 83.1373 54.7018 83.8265 55.1218 83.5316Z" fill="#421B36"/>
<path d="M66.3107 82.6475C67.7961 81.1382 69.5799 79.9324 71.5453 79.1403C71.7459 79.0595 71.8822 78.8761 71.8231 78.6517C71.7729 78.462 71.5331 78.294 71.334 78.3739C69.2376 79.2189 67.335 80.473 65.7485 82.0857C65.3894 82.4506 65.9512 83.0129 66.3107 82.6475Z" fill="#421B36"/>
<path d="M134.317 59.4026C136.616 60.1546 142.53 62.6375 146.668 73.1564C150.31 82.4113 155.327 120.443 148.8 130.227C145.126 135.734 134.969 137.808 130.135 137.228C125.301 136.648 88.7795 123.79 88.8318 114.509C88.8842 105.227 99.4253 93.1275 99.4253 93.1275L127.522 108.187C127.522 108.187 125.651 91.6896 123.718 82.6014C121.784 73.5136 123.215 55.7726 134.317 59.4026Z" fill="#8B2D6C"/>
<path d="M113.421 100.912C113.137 101.688 104.163 127.924 104.163 127.924C104.163 127.924 125.858 136.927 127.37 136.579C131.573 135.612 130.62 109.974 130.62 109.974L113.421 100.912Z" fill="#F7C569"/>
<path d="M123.174 78.5873C127.058 72.4689 131.988 67.2926 138.446 63.9136C138.873 63.6905 138.498 63.0763 138.073 63.2755C131.421 66.3916 126.524 72.1934 122.783 78.3588C122.631 78.609 123.018 78.8326 123.174 78.5873Z" fill="#421B36"/>
<path d="M99.0323 94.0069C110.48 99.8864 121.959 105.789 133.54 111.399C133.937 111.591 134.287 111.009 133.889 110.802C122.469 104.865 110.874 99.186 99.3182 93.5182C98.9935 93.3588 98.7067 93.8398 99.0323 94.0069Z" fill="#421B36"/>
<path d="M127.447 108.211C130.466 107.776 133.458 107.157 136.49 106.744C136.934 106.683 136.814 105.979 136.386 105.977C133.409 105.96 129.956 106.483 127.226 107.688C126.902 107.83 127.157 108.252 127.447 108.211Z" fill="#421B36"/>
<path d="M139.375 107.029C139.866 107.029 139.867 106.266 139.375 106.266C138.883 106.266 138.882 107.029 139.375 107.029Z" fill="#421B36"/>
<path d="M123.595 86.6619C124.809 93.9058 126.044 101.15 127.423 108.364C127.529 108.92 128.365 108.682 128.268 108.131C126.996 100.906 125.581 93.7039 124.147 86.5098C124.074 86.1453 123.535 86.3038 123.595 86.6619Z" fill="#421B36"/>
<path d="M134.719 26.1425C134.252 24.5185 132.392 23.5787 131.972 21.9421C131.75 21.0786 131.973 20.1596 131.838 19.2785C131.597 17.6997 130.219 16.4853 128.71 15.9632C127.2 15.4412 125.563 15.4814 123.966 15.5279C123.99 11.7109 121.309 8.36535 118.212 6.13349C116.627 4.99092 114.855 4.02989 112.922 3.74312C110.989 3.4568 108.872 3.93053 107.498 5.31924C105.819 3.63157 103.345 2.77125 100.982 3.05261C98.6183 3.33396 96.4158 4.75066 95.1798 6.78471C92.7537 5.37659 89.2799 6.24142 87.7973 8.62231C86.3147 11.0037 87.0715 14.5027 89.4059 16.0581C87.702 16.8755 87.0043 19.1177 87.5661 20.9224C88.1279 22.7266 89.6918 24.08 91.4224 24.8401C93.1525 25.6001 95.0565 25.8508 96.9306 26.0938L120.026 51.9733C126.64 47.9097 131.524 36.5196 133.911 32.4804C134.768 31.029 135.185 27.7629 134.719 26.1425Z" fill="#421B36"/>
<path d="M122.718 16.4877C125.537 14.1254 128.474 13.0261 131.945 11.9996C132.371 11.8736 132.314 11.1438 131.836 11.1917C128.301 11.544 124.863 13.7045 122.503 16.2728C122.369 16.4191 122.569 16.6124 122.718 16.4877Z" fill="#421B36"/>
<path d="M121.572 17.4674C123.345 14.6024 124.634 11.9641 125.325 8.62626C125.451 8.01704 124.492 7.77723 124.405 8.37291C123.967 11.3955 122.999 14.7487 121.412 17.3744C121.35 17.4765 121.509 17.5686 121.572 17.4674Z" fill="#421B36"/>
<path d="M124.851 24.8765C123.16 20.9389 120.242 18.1208 116.777 16.4711C110.021 13.2547 101.226 14.5147 95.6639 20.649C95.4318 20.9141 95.1996 21.171 94.9923 21.4447C93.2103 23.6747 91.7846 26.584 90.6488 30.3057C90.2342 31.6981 89.853 33.2069 89.513 34.8313C89.4466 35.1131 89.3888 35.4035 89.3305 35.6934C89.2063 36.3483 89.0902 36.9783 89.032 37.5916C87.1172 52.0151 101.639 57.1743 104.905 57.6954L109.768 67.2235L122.857 59.3379C122.857 59.3379 119.926 52.2635 120.025 51.9735C120.033 51.9654 120.033 51.9568 120.042 51.9487C120.34 51.1448 120.987 49.3958 121.741 47.1409C121.741 47.1327 121.749 47.1241 121.749 47.116C121.915 46.6021 122.098 46.0633 122.271 45.4997C122.354 45.2427 122.437 44.9939 122.512 44.7451C122.86 43.6178 123.208 42.441 123.54 41.2221C123.68 40.7497 123.805 40.2854 123.921 39.8045C123.937 39.7548 123.946 39.6884 123.97 39.6387C124.269 38.4614 124.551 37.2845 124.799 36.1243C124.816 36.0245 124.841 35.9251 124.849 35.8339C124.915 35.5521 124.965 35.2703 125.014 35.0052C125.288 33.5962 125.479 32.2368 125.586 30.9601C125.754 29.0457 125.597 26.6256 124.851 24.8765Z" fill="#FFBFBF"/>
<path d="M104.532 57.4204C106.161 60.6074 107.613 63.9078 109.443 66.9896C109.695 67.415 110.283 67.0428 110.091 66.6107C108.642 63.3347 106.536 60.3834 104.887 57.2126C104.765 56.9778 104.412 57.1851 104.532 57.4204Z" fill="#421B36"/>
<path d="M98.9449 28.011C98.7887 28.6614 99.1373 29.3031 99.7239 29.444C100.311 29.5849 100.913 29.1717 101.069 28.5209C101.225 27.8706 100.876 27.2289 100.29 27.088C99.7032 26.9475 99.1012 27.3607 98.9449 28.011Z" fill="#421B36"/>
<path d="M110.426 30.1753C110.27 30.8256 110.619 31.4673 111.205 31.6082C111.792 31.7491 112.394 31.3359 112.55 30.6851C112.707 30.0344 112.358 29.3931 111.771 29.2522C111.185 29.1113 110.583 29.5245 110.426 30.1753Z" fill="#421B36"/>
<path d="M117.99 25.8064C117.087 24.9171 115.737 24.2479 114.55 23.8504C113.349 23.4481 112.195 23.546 110.973 23.3857C110.306 23.2986 110.141 22.4017 110.831 22.1835C113.722 21.269 116.727 23.2593 118.484 25.329C118.769 25.6645 118.307 26.1198 117.99 25.8064Z" fill="#421B36"/>
<path d="M99.3531 20.3637C101.855 18.6408 105.21 19.8737 106.034 22.7459C107.202 26.8172 104.128 32.1195 101.233 34.7682C100.722 35.2352 99.7686 34.5654 100.241 33.9747C101.988 31.788 103.759 29.5982 104.561 26.8533C105.113 24.9642 105.362 22.9401 103.735 21.588C102.625 20.6662 100.967 20.4897 99.5473 20.8478C99.2443 20.9241 99.116 20.5271 99.3531 20.3637Z" fill="#421B36"/>
<path d="M100.709 57.8948C100.727 57.8953 100.736 57.9043 100.754 57.9047C101.819 58.0858 102.912 58.1775 103.998 58.1418C106.136 58.07 108.236 57.5182 109.967 56.2627C110.205 56.0947 110.435 55.9181 110.655 55.7226C110.701 55.6783 110.639 55.6227 110.593 55.6399C107.503 56.9261 104.169 57.2034 100.872 56.8299C100.782 56.8195 100.709 56.8272 100.636 56.862C100.235 57.0358 100.195 57.8045 100.709 57.8948Z" fill="#421B36"/>
<path d="M102.036 38.7036C104.293 38.7063 106.06 38.4592 107.689 36.7756C108.448 35.9912 109.57 37.1857 108.856 37.9837C107.191 39.8461 103.957 40.6721 101.977 38.8404C101.923 38.7912 101.969 38.7036 102.036 38.7036Z" fill="#421B36"/>
<path d="M123.747 36.1141C125.68 35.3423 128.114 36.1037 128.848 36.9825C129.582 37.8614 129.888 39.0374 129.896 40.1826C129.908 42.0862 129.067 44.0439 127.488 45.1079C125.91 46.1723 122.523 46.134 121.135 44.8311L123.747 36.1141Z" fill="#FFBFBF"/>
<path d="M126.77 41.4604C126.504 41.1714 125.807 40.8864 125.438 40.7952C124.832 40.6453 124.395 40.8553 123.883 41.1533C123.33 41.4758 122.785 40.7135 123.225 40.2691C123.808 39.6806 124.771 39.476 125.564 39.6901C125.944 39.7931 126.34 40.008 126.604 40.3065C126.903 40.6462 126.863 40.9524 126.949 41.3597C126.97 41.46 126.845 41.5417 126.77 41.4604Z" fill="#421B36"/>
<path d="M116.586 15.0213C119.942 14.4062 124.819 17.217 127.122 19.7343L125.984 30.2026C125.963 31.5972 125.758 33.1056 125.314 34.7363C125.314 34.7363 123.79 39.6801 121.92 39.1458C120.506 38.7421 121.403 29.2831 121.403 29.2831C120.244 28.0227 116.529 31.0155 116.785 16.1652C116.785 16.1652 116.934 16.2311 117.182 16.3576L116.586 15.0213Z" fill="#421B36"/>
<path d="M117.621 16.2267C117.614 16.2095 117.613 16.19 117.605 16.1733C117.617 16.152 117.633 16.1326 117.644 16.1113L117.621 16.2267Z" fill="#421B36"/>
<path d="M117.209 18.2654L117.619 16.2246C117.895 16.921 117.792 17.7998 117.209 18.2654Z" fill="#421B36"/>
<path d="M94.3653 17.1508C92.8384 16.4039 91.0048 16.4341 89.7774 17.7248C88.544 19.0219 88.7093 20.9597 89.7575 22.3105C90.0791 22.7246 89.557 23.2991 89.1636 22.9044C87.6024 21.3373 87.5252 18.8692 89.0476 17.2344C90.5022 15.6723 92.9188 15.5576 94.4524 17.0375C94.5143 17.0971 94.4362 17.1856 94.3653 17.1508Z" fill="#421B36"/>
<path d="M92.0868 20.2792C94.3539 21.5947 97.153 21.9605 99.682 21.2718C102.211 20.5831 104.438 18.848 105.725 16.5642C109.747 18.5156 114.698 18.4276 118.648 16.3335C117.155 14.8553 115.16 13.9584 113.108 13.5064C111.057 13.0543 108.936 13.0209 106.836 13.0774C104.203 13.1483 101.541 13.3646 99.0484 14.2136C96.5555 15.0631 94.222 16.6044 92.8486 18.8516C93.0216 18.8738 93.195 18.8959 93.368 18.918" fill="#421B36"/>
<path d="M108.307 6.15186C107.146 2.65278 103.581 0.396087 99.8801 0.810665C95.4999 1.30111 92.5785 5.45186 92.699 9.66629C92.7189 10.3663 93.8005 10.3708 93.7901 9.66629C93.7332 5.89715 96.2175 2.38317 100.088 1.84034C103.475 1.36524 106.502 3.38078 108.204 6.19521C108.236 6.24895 108.328 6.21463 108.307 6.15186Z" fill="#421B36"/>
</svg>
