<svg width="80" height="80" viewBox="0 0 80 80" fill="none" xmlns="http://www.w3.org/2000/svg">
<g id="Group 1">
<g id="Group">
<path id="Vector" d="M80 39.8164C80 47.0844 78.0438 53.8999 74.6203 59.7673C74.4916 59.9893 74.3544 60.2114 74.2171 60.4334C73.8996 60.963 73.565 61.4925 73.2132 62.0049C73.0674 62.2184 72.9215 62.4319 72.7585 62.6455C72.5697 62.9188 72.3724 63.1921 72.1664 63.4568C70.828 65.2845 69.3179 66.9841 67.6791 68.547C65.0794 71.0409 62.1278 73.1846 58.9189 74.9012C56.3707 76.2592 53.668 77.3609 50.828 78.1552C50.6392 78.2065 50.4419 78.2577 50.2531 78.309C46.9841 79.1716 43.5435 79.6327 40 79.6327C37.1514 79.6327 34.3801 79.3338 31.7031 78.7701C30.0729 78.4371 28.4771 77.993 26.9241 77.4549C21.2784 75.5162 16.1991 72.3476 12.0206 68.2566C10.0815 66.3777 8.33977 64.2853 6.8211 62.0391C6.14328 61.0569 5.51694 60.032 4.94208 58.9901C1.79322 53.302 0 46.7684 0 39.8164C0 17.8243 17.9065 0 40 0C62.0935 0 80 17.8243 80 39.8164Z" fill="#EDDDD6"/>
</g>
<g id="Group_2">
<g id="Group_3">
<path id="Vector_2" d="M38.0181 19.2248C38.0181 19.2248 23.4956 7.50538 10.6942 30.2713C-2.10716 53.0371 10.671 67.3435 26.9465 61.1456C43.2219 54.9477 38.9233 25.8728 38.9233 25.8728L38.0181 19.2248Z" fill="black"/>
</g>
</g>
<g id="Group_4">
<g id="Group_5">
<path id="Vector_3" d="M54.6626 26.6666C54.6626 26.6666 57.2709 20.6147 56.7716 17.9586C56.2722 15.3024 45.6982 7.48947 36.8376 11.7324C27.977 15.9746 27.5197 27.6445 29.5875 32.4435C34.9123 44.8026 45.5961 38.9565 45.5961 38.9565C45.5961 38.9565 62.6677 33.552 54.6626 26.6666Z" fill="black"/>
</g>
</g>
<g id="Group_6">
<g id="Group_7">
<path id="Vector_4" d="M67.6791 68.914C65.0794 71.4079 62.1278 73.5516 58.9189 75.2683C56.3707 76.6262 53.668 77.728 50.828 78.5222C50.6392 78.5735 50.4419 78.6247 50.2531 78.676C46.9841 79.5386 43.5435 79.9998 40 79.9998C37.1514 79.9998 34.3801 79.7009 31.7031 79.1372C30.0729 78.8041 28.4771 78.36 26.9241 77.8219C27.5075 64.2509 28.417 50.7311 29.8413 49.1852C30.0815 48.9204 30.4247 48.6557 30.8537 48.3909C30.9481 48.3397 30.9996 48.3141 30.9996 48.3141C34.9635 46.0252 45.7229 44.1889 54.689 47.0586C57.0142 47.8016 59.1849 48.8436 61.0897 50.2613C64.5474 52.8321 66.7182 60.3478 67.6791 68.914Z" fill="#FCB35B"/>
</g>
</g>
<g id="Group_8">
<g id="Group_9">
<g id="Group_10">
<g id="Group_11">
<g id="Group_12">
<path id="Vector_5" d="M53.286 40.7319L53.2971 40.9727L53.3392 45.518L53.3863 49.0812C53.3863 49.0812 53.7364 49.8917 49.564 49.8456C43.9715 49.7627 41.3589 47.3295 41.3589 47.3295V39.1553L43.0655 39.385L53.286 40.7319Z" fill="#F27E64"/>
</g>
</g>
</g>
</g>
</g>
<g id="Group_13">
<g id="Group_14">
<g id="Group_15">
<g id="Group_16">
<g id="Group_17">
<path id="Vector_6" d="M53.2972 40.9726L53.3393 45.5179C50.6142 45.3351 45.6224 44.4324 43.4027 40.2996C43.2311 39.9631 43.1127 39.6591 43.0664 39.4028L53.2775 40.906L53.2972 40.9726Z" fill="black"/>
</g>
</g>
</g>
</g>
</g>
<g id="Group_18">
<g id="Group_19">
<g id="Group_20">
<g id="Group_21">
<g id="Group_22">
<path id="Vector_7" d="M53.8919 19.1773C53.8919 19.1773 59.7117 30.7055 58.2025 37.4389C56.6933 44.1714 50.5663 43.4523 46.8649 42.3643C43.1635 41.2762 41.3574 39.1496 41.3574 39.1496C41.3574 39.1496 38.0266 40.4759 35.5873 37.4568C33.148 34.4377 34.3509 30.7558 36.2437 29.8258C38.1364 28.8957 40.5157 30.1648 40.5157 30.1648L38.5251 26.8306C38.5251 26.8306 45.1798 8.98751 53.8919 19.1773Z" fill="#F27E64"/>
</g>
</g>
</g>
</g>
</g>
<g id="Group_23">
<g id="Group_24">
<path id="Vector_8" d="M54.1374 34.2532C54.1022 34.2532 54.0662 34.2489 54.031 34.2395C53.8045 34.1814 53.668 33.9517 53.7272 33.7262C54.2927 31.5483 52.5621 29.2868 52.5449 29.2637C52.4016 29.0801 52.4351 28.8153 52.6204 28.6727C52.8066 28.5301 53.0709 28.5643 53.2141 28.747C53.2965 28.8521 55.2184 31.3536 54.5466 33.9372C54.4977 34.1268 54.3253 34.2532 54.1374 34.2532Z" fill="black"/>
</g>
</g>
<g id="Group_25">
<g id="Group_26">
<path id="Vector_9" d="M40.2555 35.7723C40.1491 35.7723 40.0436 35.733 39.9612 35.6544L36.5781 32.4056C36.41 32.2442 36.4048 31.9768 36.5678 31.8094C36.7309 31.6429 36.9986 31.6378 37.1667 31.7983L40.5507 35.0472C40.7189 35.2086 40.724 35.4759 40.5618 35.6433C40.4769 35.7296 40.3662 35.7723 40.2555 35.7723Z" fill="black"/>
</g>
</g>
<g id="Group_27">
<g id="Group_28">
<path id="Vector_10" d="M36.8007 35.0214C36.6033 35.0214 36.4257 34.8831 36.3854 34.6824C36.3391 34.4535 36.4884 34.2314 36.7174 34.1862L38.9302 33.7455C39.1627 33.7002 39.3824 33.8479 39.4287 34.076C39.4742 34.3049 39.3258 34.5261 39.0967 34.5722L36.8839 35.0129C36.8564 35.0189 36.8281 35.0214 36.8007 35.0214Z" fill="black"/>
</g>
</g>
<g id="Group_29">
<g id="Group_30">
<path id="Vector_11" d="M52.0988 39.0076C51.8971 39.0076 51.6895 38.9623 51.4818 38.8701C49.9409 38.1911 48.5466 35.6195 48.4874 35.5102C48.4068 35.3616 48.4248 35.1788 48.5312 35.0473C48.6376 34.9158 48.8126 34.8594 48.9756 34.9055L53.6869 36.2225C53.8997 36.2823 54.031 36.4941 53.9881 36.7102C53.9537 36.8793 53.632 38.3782 52.7036 38.859C52.5123 38.9581 52.3081 39.0076 52.0988 39.0076ZM49.7804 36.0064C50.3141 36.8024 51.0957 37.7786 51.8242 38.0989C52.073 38.2082 52.2223 38.1578 52.3124 38.1108C52.6685 37.9272 52.9216 37.3473 53.0563 36.9228L49.7804 36.0064Z" fill="black"/>
</g>
</g>
<g id="Group_31">
<g id="Group_32">
<path id="Vector_12" d="M46.2933 25.9773C46.2341 25.9773 46.1749 25.9654 46.1182 25.9397C45.9055 25.8432 45.8119 25.593 45.9089 25.3812C46.6536 23.7567 48.688 24.0762 48.7738 24.0898C49.0046 24.1283 49.159 24.3443 49.1212 24.5741C49.0835 24.803 48.8673 24.9618 48.6356 24.9217C48.5747 24.9114 47.1538 24.6971 46.6811 25.7313C46.6082 25.8859 46.4537 25.9773 46.2933 25.9773Z" fill="black"/>
</g>
</g>
<g id="Group_33">
<g id="Group_34">
<path id="Vector_13" d="M53.4845 24.3179C53.4081 24.3179 53.3317 24.2974 53.2622 24.2547C53.0632 24.1326 53.0014 23.8729 53.1241 23.6748C53.4381 23.1683 53.8594 22.8668 54.3768 22.778C55.4184 22.6004 56.4386 23.4049 56.4806 23.4391C56.6625 23.5851 56.6908 23.849 56.5458 24.0309C56.4008 24.2129 56.1348 24.2427 55.9504 24.0976C55.7384 23.9293 55.0649 23.5142 54.5175 23.6099C54.2472 23.6569 54.0276 23.8225 53.8448 24.118C53.765 24.2479 53.626 24.3179 53.4845 24.3179Z" fill="black"/>
</g>
</g>
<g id="Group_35">
<g id="Group_36">
<path id="Vector_14" d="M55.0907 29.2671C54.8917 29.2671 54.7149 29.1279 54.6755 28.9263L54.2473 26.7467C54.2241 26.6306 54.2516 26.511 54.3211 26.4162L55.113 25.3409C55.2512 25.1522 55.5163 25.1121 55.705 25.2496C55.8938 25.3871 55.9341 25.651 55.796 25.8389L55.1139 26.7655L55.506 28.7632C55.5515 28.9921 55.4013 29.2133 55.1722 29.2577C55.1448 29.2654 55.1173 29.2671 55.0907 29.2671Z" fill="black"/>
</g>
</g>
<g id="Group_37">
<g id="Group_38">
<path id="Vector_15" d="M48.5525 30.0996C48.3509 30.0996 48.1724 29.9553 48.1355 29.7512L47.7494 27.5639C47.7263 27.4341 47.7657 27.3017 47.8558 27.2052L49.0313 25.9395C49.19 25.7678 49.4577 25.7576 49.6302 25.9164C49.8018 26.0744 49.8129 26.3409 49.6533 26.5126L48.6203 27.6254L48.9704 29.6077C49.0107 29.8374 48.8562 30.0552 48.6263 30.0962C48.6014 30.0971 48.5765 30.0996 48.5525 30.0996Z" fill="black"/>
</g>
</g>
<g id="Group_39">
<g id="Group_40">
<path id="Vector_16" d="M40.5158 30.1644C40.5158 30.1644 45.5686 27.2802 47.2657 23.4805C48.9637 19.6808 48.9448 17.8155 48.9448 17.8155C48.9448 17.8155 49.8183 20.2146 51.7333 20.6988C53.6484 21.1831 54.8247 21.1933 54.8247 21.1933L56.1932 24.5976L55.0186 16.3824C55.0186 16.3824 49.7737 13.9005 49.089 13.9329C48.4043 13.9654 39.8372 15.9118 39.3618 16.4533C38.8865 16.9947 36.4789 23.8025 36.4789 23.8025L36.4326 26.8284L40.5158 30.1644Z" fill="black"/>
</g>
</g>
<g id="Group_41">
<g id="Group_42">
<path id="Vector_17" d="M31.703 79.1376C30.0728 78.8045 28.477 78.3604 26.924 77.8223C21.2783 75.8836 16.199 72.715 12.0205 68.624C18.1724 55.3434 29.4379 49.1258 30.8536 48.3913C30.948 48.3401 30.9995 48.3145 30.9995 48.3145C30.9995 48.3145 29.9785 70.0418 31.703 79.1376Z" fill="#FCB35B"/>
</g>
</g>
<g id="Group_43">
<path id="Vector_18" d="M72.1664 63.8238C70.828 65.6515 69.3179 67.3511 67.6791 68.914C65.0794 71.4079 62.1278 73.5516 58.9189 75.2683L54.689 47.0586C55.341 47.1611 64.8134 48.8863 72.1664 63.8238Z" fill="#FCB35B"/>
</g>
<g id="Group_44">
<path id="Vector_19" d="M49.517 50.2536C49.2691 50.2536 49.0117 50.2502 48.7423 50.2425C43.481 50.0931 40.1794 47.1286 40.0413 47.0031C39.8662 46.8434 39.8551 46.5743 40.0147 46.4001C40.1751 46.2259 40.4454 46.2139 40.6213 46.3736C40.653 46.4027 43.8379 49.2484 48.7671 49.3885C53.5265 49.5294 54.5767 48.3559 54.5861 48.344C54.7354 48.1672 55.0014 48.1364 55.1841 48.2799C55.3652 48.4234 55.4046 48.6779 55.2665 48.8632C55.1558 49.0127 54.0945 50.2536 49.517 50.2536Z" fill="#7772D3"/>
</g>
</g>
</svg>
